<svg width="232" height="69" viewBox="0 0 232 69" fill="none" xmlns="http://www.w3.org/2000/svg">
<path d="M40.8237 41.7276V28.0817H27.1778V41.7276H40.8237Z" fill="#C8F01A"/>
<path d="M54.3649 27.9673V14.3213H40.7189V27.9673H54.3649Z" fill="#C8F01A"/>
<path d="M68.0196 14.3124V0.666443L54.3737 0.666443V14.3124H68.0196Z" fill="#C8F01A"/>
<path d="M40.7088 55.3079H54.3547V41.6619H40.7088V55.3079Z" fill="#C8F01A"/>
<path d="M54.3636 68.9622H68.0096V55.3162H54.3636V68.9622Z" fill="#C8F01A"/>
<path d="M13.6556 41.6717V55.3176H27.3016V41.6717H13.6556Z" fill="#C8F01A"/>
<path d="M0 55.3268L0 68.9728H13.646V55.3268H0Z" fill="#C8F01A"/>
<path d="M27.3108 14.3414H13.6649V27.9874H27.3108V14.3414Z" fill="#C8F01A"/>
<path d="M13.6544 0.686584H0.00839233V14.3325H13.6544V0.686584Z" fill="#C8F01A"/>
<path d="M95.4261 41.4427V27.7968H81.7801V41.4427H95.4261Z" fill="#C8F01A"/>
<path d="M108.967 27.6729V14.027H95.3212V27.6729H108.967Z" fill="#C8F01A"/>
<path d="M122.624 14.0185V0.372559L108.978 0.372559V14.0185H122.624Z" fill="#C8F01A"/>
<path d="M95.3027 55.0132H108.949V41.3672H95.3027V55.0132Z" fill="#C8F01A"/>
<path d="M108.958 68.6687H122.604V55.0227H108.958V68.6687Z" fill="#C8F01A"/>
<path d="M68.2487 41.3756V55.0216H81.8946V41.3756H68.2487Z" fill="#C8F01A"/>
<path d="M81.9131 14.0459H68.2672V27.6919H81.9131V14.0459Z" fill="#C8F01A"/>
<path d="M150.209 41.3652V27.7192H136.563V41.3652H150.209Z" fill="#C8F01A"/>
<path d="M163.742 27.5971V13.9512H150.096V27.5971H163.742Z" fill="#C8F01A"/>
<path d="M177.397 13.9322V0.286255L163.751 0.286255V13.9322H177.397Z" fill="#C8F01A"/>
<path d="M150.087 54.9362H163.733V41.2902H150.087V54.9362Z" fill="#C8F01A"/>
<path d="M163.742 68.5822H177.388V54.9362H163.742V68.5822Z" fill="#C8F01A"/>
<path d="M123.032 41.2998V54.9458H136.678V41.2998H123.032Z" fill="#C8F01A"/>
<path d="M136.696 13.9689H123.051V27.6148H136.696V13.9689Z" fill="#C8F01A"/>
<path d="M204.804 41.0717V27.4258H191.158V41.0717H204.804Z" fill="#C8F01A"/>
<path d="M218.344 27.3007V13.6548H204.698V27.3007H218.344Z" fill="#C8F01A"/>
<path d="M232 13.646V0L218.354 0V13.646H232Z" fill="#C8F01A"/>
<path d="M204.689 54.6401H218.335V40.9942H204.689V54.6401Z" fill="#C8F01A"/>
<path d="M218.345 68.2959H231.991V54.6499H218.345V68.2959Z" fill="#C8F01A"/>
<path d="M177.627 41.0136V54.6595H191.273V41.0136H177.627Z" fill="#C8F01A"/>
<path d="M191.29 13.6749H177.644V27.3209H191.29V13.6749Z" fill="#C8F01A"/>
</svg>
