<svg width="138" height="138" viewBox="0 0 138 138" fill="none" xmlns="http://www.w3.org/2000/svg">
<circle cx="69" cy="69" r="69" fill="#005BE8"/>
<path d="M99.9581 58.1185V52.7066H94.4201V47.0302H88.9276V41.5654H83.323V47.0302H77.7324V52.7066H72.1944V58.1608H66.7159V52.7489H61.1779V47.0725H55.6855V41.6077H50.0809V47.0725H44.4903V52.7489H38.9522V58.1608H33.4668V69.242H39.0714V63.8301H44.5569V58.1538H50.0949V52.689H55.5733V58.1538H61.1113V63.8301H66.5968V69.242H72.2049V63.8513H77.7955L77.799 58.1115H83.337V52.6466H88.8155V58.1115H94.3535V63.7878H99.8389V69.2032H105.444V58.1185H99.9581Z" fill="#FFF2F2"/>
<path d="M99.3013 85.8763V80.4644H93.7633V74.788H88.2709V69.3232H82.6663V74.788H77.0757V80.4644H71.5376V85.9186H66.0592V80.5067H60.5212V74.8304H55.0287V69.3656H49.4241V74.8304H43.8335V80.5067H38.2955V85.9186H32.8101V96.9998H38.4147V91.5879H43.9001V85.9116H49.4381V80.4468H54.9166V85.9116H60.4546V91.5879H65.94V96.9998H71.5482V91.6091H77.1388L77.1423 85.8693H82.6803V80.4045H88.1587V85.8693H93.6967V91.5456H99.1822V96.9611H104.787V85.8763H99.3013Z" fill="#FFF2F2"/>
<path d="M87.5243 121.521C87.7747 121.434 88.0087 121.403 88.2264 121.429C88.4416 121.461 88.6404 121.542 88.8227 121.675C89.0011 121.808 89.1632 121.992 89.3088 122.226C89.4543 122.461 89.584 122.741 89.6978 123.067C89.8103 123.39 89.8824 123.688 89.9142 123.962C89.9472 124.24 89.9354 124.487 89.8786 124.702C89.8181 124.919 89.7126 125.105 89.5623 125.26C89.4094 125.419 89.2078 125.543 88.9574 125.63C88.7069 125.717 88.4741 125.745 88.2589 125.714C88.0412 125.688 87.8431 125.608 87.6646 125.475C87.4824 125.342 87.3178 125.157 87.1709 124.919C87.0253 124.685 86.8963 124.406 86.7838 124.084C86.67 123.757 86.5972 123.457 86.5655 123.183C86.5337 122.909 86.5481 122.664 86.6087 122.447C86.6654 122.231 86.7702 122.043 86.9231 121.884C87.0734 121.729 87.2738 121.608 87.5243 121.521ZM87.7088 122.05C87.4243 122.149 87.2602 122.326 87.2167 122.579C87.1745 122.837 87.2176 123.149 87.3459 123.517L87.5782 124.183C87.7052 124.547 87.8646 124.815 88.0563 124.987C88.2494 125.162 88.4882 125.2 88.7728 125.101C89.0573 125.002 89.2207 124.823 89.2629 124.566C89.3064 124.313 89.2647 124.004 89.1376 123.639L88.9034 122.968C88.7764 122.604 88.6164 122.334 88.4233 122.159C88.2316 121.987 87.9934 121.951 87.7088 122.05ZM83.3323 122.813C83.8498 122.68 84.2822 122.763 84.6294 123.064C84.9727 123.366 85.2311 123.853 85.4047 124.526C85.5782 125.199 85.5876 125.751 85.4328 126.181C85.2742 126.612 84.9361 126.894 84.4186 127.027C84.2201 127.079 84.0419 127.095 83.8838 127.078C83.7229 127.066 83.5779 127.026 83.4488 126.96C83.3206 126.897 83.2055 126.813 83.1034 126.707C82.9983 126.605 82.9044 126.49 82.8216 126.362L83.36 126.012C83.4152 126.097 83.4728 126.176 83.5328 126.247C83.5927 126.319 83.6594 126.377 83.7328 126.42C83.8063 126.463 83.8883 126.492 83.9791 126.506C84.0659 126.521 84.1677 126.513 84.2845 126.483C84.5724 126.409 84.754 126.244 84.8291 125.988C84.9052 125.736 84.8951 125.423 84.7988 125.05L84.6213 124.361C84.525 123.987 84.3821 123.707 84.1927 123.519C84.0042 123.335 83.766 123.28 83.478 123.355C83.3613 123.385 83.2685 123.427 83.1997 123.482C83.127 123.538 83.069 123.603 83.0257 123.677C82.9824 123.75 82.9518 123.833 82.9339 123.924C82.9161 124.016 82.9036 124.113 82.8966 124.214L82.2559 124.167C82.2665 124.015 82.2927 123.868 82.3345 123.724C82.3735 123.585 82.4335 123.456 82.5145 123.335C82.5964 123.219 82.7044 123.114 82.8382 123.021C82.9691 122.934 83.1338 122.864 83.3323 122.813ZM80.5673 123.561L81.3165 127.701L78.7245 128.171L78.6236 127.613L80.5513 127.264L80.3334 126.06L78.4769 126.396L78.376 125.838L80.2325 125.503L80.0039 124.239L78.0762 124.588L77.9753 124.03L80.5673 123.561ZM80.013 128.25L80.4447 128.368L80.0982 129.533L79.4913 129.361L80.013 128.25ZM74.0993 124.507L74.5286 125.591L75.8601 125.458L76.0666 124.311L76.7503 124.242L75.9448 128.551L75.0271 128.643L73.3856 124.578L74.0993 124.507ZM75.4093 127.92L75.4572 127.915L75.7898 126.028L74.7102 126.136L75.4093 127.92ZM71.6126 127.916L71.6668 127.915L71.5911 124.679L72.1816 124.665L72.2801 128.872L71.4123 128.892L70.1013 125.685L70.047 125.686L70.1228 128.922L69.5322 128.936L69.4338 124.73L70.3015 124.709L71.6126 127.916ZM66.5393 124.587C66.8042 124.601 67.0324 124.661 67.2239 124.768C67.4111 124.879 67.5641 125.03 67.6826 125.221C67.7972 125.412 67.8774 125.644 67.9233 125.916C67.9692 126.188 67.983 126.497 67.9646 126.842C67.9464 127.183 67.9001 127.486 67.8256 127.752C67.7509 128.022 67.6464 128.245 67.5122 128.423C67.374 128.601 67.206 128.733 67.0082 128.819C66.8063 128.909 66.5729 128.947 66.308 128.933C66.0432 128.919 65.8171 128.856 65.6299 128.746C65.4384 128.639 65.2853 128.49 65.1708 128.299C65.0522 128.107 64.97 127.874 64.9244 127.598C64.8785 127.325 64.8646 127.019 64.8828 126.678C64.9012 126.333 64.9476 126.027 65.0221 125.762C65.0966 125.496 65.203 125.274 65.3412 125.097C65.4754 124.919 65.6435 124.785 65.8455 124.695C66.0432 124.609 66.2745 124.573 66.5393 124.587ZM66.5096 125.147C66.2086 125.131 65.9899 125.232 65.8536 125.45C65.717 125.672 65.6384 125.978 65.6177 126.367L65.5802 127.071C65.5597 127.456 65.6056 127.765 65.7181 127.996C65.8303 128.231 66.0369 128.357 66.3378 128.373C66.6388 128.389 66.8575 128.286 66.9941 128.064C67.1305 127.846 67.2089 127.544 67.2294 127.159L67.2672 126.449C67.2877 126.063 67.2419 125.753 67.1296 125.518C67.0172 125.286 66.8105 125.163 66.5096 125.147ZM62.3232 124.229C62.6858 124.276 62.9825 124.379 63.213 124.538C63.4436 124.698 63.6249 124.894 63.757 125.125L63.2732 125.482C63.1386 125.27 62.9875 125.107 62.8201 124.992C62.6521 124.881 62.4545 124.811 62.2273 124.782C61.9643 124.748 61.7553 124.781 61.6004 124.883C61.4414 124.984 61.3475 125.146 61.3186 125.369C61.2954 125.548 61.3294 125.693 61.4207 125.802C61.5114 125.915 61.6795 126.009 61.9249 126.086L62.3699 126.216C62.565 126.274 62.7257 126.347 62.8519 126.437C62.9776 126.53 63.0759 126.632 63.1467 126.742C63.2169 126.857 63.264 126.978 63.2879 127.107C63.3072 127.239 63.3079 127.375 63.2899 127.514C63.2388 127.909 63.0726 128.191 62.7912 128.362C62.5094 128.536 62.1453 128.594 61.6989 128.536C61.3681 128.494 61.0942 128.403 60.8769 128.266C60.6552 128.132 60.485 127.96 60.3663 127.75L60.8389 127.386C60.9364 127.54 61.0595 127.67 61.208 127.774C61.3521 127.882 61.5397 127.95 61.7709 127.98C62.0179 128.012 62.2142 127.983 62.3596 127.892C62.5006 127.805 62.5842 127.66 62.6105 127.457C62.6327 127.286 62.6004 127.144 62.5137 127.031C62.4224 126.922 62.2501 126.829 61.9967 126.751L61.5644 126.617C61.1986 126.5 60.9434 126.327 60.7989 126.098C60.6538 125.873 60.6003 125.612 60.6385 125.318C60.6633 125.126 60.7198 124.955 60.8082 124.805C60.8926 124.654 61.0078 124.531 61.1537 124.436C61.2957 124.341 61.4664 124.274 61.666 124.235C61.861 124.199 62.0801 124.197 62.3232 124.229ZM53.009 121.247L53.75 121.462C54.0125 121.538 54.1814 121.663 54.2569 121.835C54.3336 122.004 54.3394 122.2 54.2746 122.424L54.2108 122.644C54.4053 122.738 54.5621 122.861 54.6813 123.012C54.8005 123.164 54.8851 123.341 54.9351 123.544C54.9801 123.75 54.9911 123.979 54.9681 124.232C54.945 124.484 54.8904 124.759 54.8043 125.056C54.7092 125.384 54.5952 125.669 54.4623 125.911C54.3284 126.157 54.1758 126.351 54.0047 126.494C53.8298 126.636 53.6362 126.726 53.4241 126.765C53.207 126.807 52.9711 126.791 52.7164 126.717C52.4616 126.643 52.2556 126.531 52.0983 126.381C51.9361 126.233 51.8209 126.053 51.7527 125.841C51.6806 125.628 51.6537 125.382 51.6719 125.102C51.689 124.827 51.745 124.525 51.8401 124.197C52.0124 123.603 52.2471 123.154 52.5441 122.851C52.8411 122.548 53.2037 122.423 53.6319 122.476L53.7711 121.996L52.868 121.734L53.009 121.247ZM53.772 123.075C53.4825 122.991 53.2466 123.04 53.0643 123.222C52.8809 123.407 52.7349 123.687 52.6264 124.061L52.43 124.738C52.3226 125.109 52.2974 125.42 52.3544 125.67C52.4103 125.925 52.583 126.094 52.8724 126.178C53.1619 126.262 53.3984 126.211 53.5818 126.026C53.7641 125.845 53.9089 125.569 54.0163 125.198L54.2144 124.515C54.3218 124.145 54.3475 123.832 54.2916 123.577C54.2347 123.326 54.0614 123.159 53.772 123.075ZM49.0432 125.478L49.9486 123.056C50.0091 122.894 50.0603 122.746 50.102 122.612C50.1399 122.476 50.1539 122.352 50.1439 122.241C50.1325 122.134 50.0908 122.039 50.0187 121.956C49.9467 121.874 49.8316 121.803 49.6735 121.744C49.5155 121.684 49.3821 121.662 49.2735 121.678C49.1648 121.693 49.0711 121.737 48.9921 121.811C48.9118 121.888 48.8432 121.991 48.7864 122.12C48.7259 122.247 48.6654 122.392 48.6049 122.554L47.6994 124.976L47.0671 124.74L47.9303 122.43C48.0358 122.148 48.1456 121.906 48.2597 121.704C48.3686 121.505 48.4969 121.351 48.6444 121.243C48.7906 121.139 48.9636 121.083 49.1635 121.077C49.3596 121.068 49.5951 121.116 49.8698 121.218C50.1446 121.321 50.3552 121.441 50.5016 121.577C50.6443 121.712 50.7366 121.866 50.7786 122.041C50.8193 122.219 50.8171 122.42 50.7722 122.643C50.7221 122.869 50.6443 123.123 50.5388 123.405L49.6756 125.715L49.0432 125.478ZM47.0637 120.202L45.278 124.012L42.8929 122.894L43.1334 122.381L44.9072 123.212L45.4265 122.104L43.7182 121.303L43.9587 120.79L45.667 121.591L46.2119 120.429L44.4381 119.597L44.6786 119.084L47.0637 120.202ZM37.2228 118.596L37.2677 118.626L39.0814 115.945L39.5707 116.276L37.2132 119.761L36.4943 119.275L37.2845 115.901L37.2396 115.871L35.4259 118.552L34.9366 118.221L37.2941 114.736L38.013 115.222L37.2228 118.596ZM35.0119 112.948C35.2203 113.112 35.3721 113.293 35.4672 113.491C35.5567 113.689 35.5948 113.9 35.5816 114.125C35.5652 114.348 35.4975 114.583 35.3784 114.832C35.2593 115.081 35.0929 115.341 34.8792 115.613C34.668 115.881 34.4555 116.103 34.2416 116.277C34.0253 116.454 33.8111 116.577 33.5989 116.646C33.3835 116.711 33.1702 116.722 32.959 116.679C32.7421 116.636 32.5295 116.533 32.321 116.369C32.1126 116.205 31.9636 116.024 31.8741 115.826C31.779 115.628 31.7396 115.418 31.756 115.196C31.7693 114.971 31.8367 114.733 31.9583 114.481C32.0773 114.232 32.2425 113.973 32.4537 113.705C32.6674 113.433 32.8811 113.21 33.095 113.036C33.3088 112.861 33.5234 112.741 33.7388 112.675C33.951 112.607 34.1655 112.594 34.3824 112.637C34.5936 112.681 34.8034 112.784 35.0119 112.948ZM34.6653 113.389C34.4284 113.203 34.1915 113.159 33.9544 113.259C33.7149 113.362 33.4746 113.567 33.2336 113.873L32.7975 114.428C32.559 114.731 32.4191 115.009 32.3779 115.263C32.3342 115.52 32.4308 115.742 32.6676 115.928C32.9045 116.115 33.1427 116.156 33.3822 116.053C33.6193 115.953 33.857 115.752 34.0956 115.449L34.5354 114.89C34.7739 114.587 34.915 114.306 34.9587 114.049C35 113.796 34.9021 113.575 34.6653 113.389ZM31.7746 110.225C32.0434 110.473 32.2257 110.729 32.3216 110.992C32.4176 111.256 32.4524 111.52 32.4261 111.786L31.8251 111.797C31.8378 111.546 31.809 111.326 31.7387 111.135C31.6658 110.947 31.5451 110.776 31.3768 110.621C31.1818 110.441 30.9918 110.348 30.8067 110.341C30.6186 110.331 30.4483 110.409 30.2957 110.575C30.1731 110.708 30.1175 110.845 30.1289 110.987C30.1376 111.131 30.2199 111.306 30.376 111.51L30.6637 111.874C30.7896 112.034 30.8782 112.186 30.9296 112.332C30.9783 112.481 30.9995 112.621 30.9934 112.752C30.9846 112.886 30.9527 113.012 30.8978 113.131C30.8372 113.25 30.7592 113.361 30.6639 113.465C30.3941 113.757 30.0952 113.891 29.7672 113.868C29.4365 113.847 29.1058 113.684 28.775 113.379C28.5298 113.153 28.3584 112.921 28.2606 112.683C28.1572 112.445 28.1177 112.207 28.1422 111.967L28.7384 111.943C28.7287 112.125 28.7543 112.302 28.8152 112.473C28.8705 112.644 28.9838 112.809 29.1551 112.967C29.3382 113.136 29.5153 113.225 29.6863 113.235C29.8517 113.246 30.0038 113.176 30.1428 113.025C30.26 112.898 30.3157 112.764 30.3099 112.622C30.2985 112.48 30.2118 112.304 30.0498 112.095L29.7751 111.735C29.5438 111.428 29.4355 111.14 29.4502 110.869C29.4621 110.601 29.5689 110.358 29.7705 110.139C29.9013 109.998 30.0463 109.891 30.2055 109.819C30.3618 109.744 30.5268 109.711 30.7005 109.718C30.8713 109.723 31.0494 109.767 31.2348 109.85C31.4145 109.934 31.5944 110.059 31.7746 110.225ZM25.8241 103.899C26.1586 104.315 26.2604 104.744 26.1293 105.184C25.9957 105.621 25.6579 106.057 25.1157 106.492C24.5736 106.927 24.0747 107.163 23.6192 107.199C23.1611 107.232 22.7648 107.04 22.4302 106.623C22.3019 106.463 22.2132 106.307 22.164 106.156C22.1092 106.004 22.0854 105.856 22.0927 105.711C22.0968 105.569 22.1264 105.429 22.1814 105.292C22.2308 105.155 22.2968 105.022 22.3794 104.894L22.9203 105.24C22.8652 105.325 22.8173 105.41 22.7767 105.494C22.736 105.579 22.7111 105.663 22.7018 105.748C22.6925 105.833 22.7002 105.919 22.7248 106.008C22.7469 106.093 22.7957 106.183 22.8712 106.277C23.0573 106.508 23.2824 106.606 23.5466 106.569C23.8076 106.535 24.0885 106.397 24.3894 106.155L24.9441 105.71C25.2449 105.469 25.4419 105.223 25.535 104.973C25.6249 104.726 25.5768 104.486 25.3907 104.254C25.3152 104.16 25.2383 104.093 25.1597 104.053C25.0787 104.01 24.9958 103.984 24.9111 103.974C24.8264 103.965 24.7385 103.971 24.6475 103.993C24.5566 104.014 24.4634 104.043 24.3681 104.078L24.1468 103.475C24.2898 103.422 24.4354 103.385 24.5834 103.364C24.7259 103.342 24.8686 103.344 25.0118 103.368C25.1518 103.395 25.2915 103.45 25.4309 103.534C25.5648 103.617 25.6958 103.739 25.8241 103.899ZM23.3472 100.574C23.4955 100.794 23.5847 101.012 23.6148 101.229C23.6394 101.445 23.611 101.658 23.5297 101.868C23.4461 102.075 23.3095 102.279 23.12 102.479C22.9305 102.68 22.6925 102.876 22.406 103.07C22.1228 103.261 21.8528 103.406 21.5959 103.507C21.3356 103.61 21.094 103.661 20.8711 103.661C20.646 103.658 20.4395 103.604 20.2517 103.498C20.0583 103.391 19.8874 103.227 19.7391 103.007C19.5908 102.787 19.5044 102.569 19.4798 102.353C19.4497 102.136 19.4764 101.924 19.56 101.717C19.6414 101.508 19.7785 101.301 19.9713 101.098C20.1608 100.898 20.3971 100.702 20.6803 100.511C20.9668 100.318 21.2385 100.171 21.4955 100.07C21.7524 99.9698 21.9934 99.9211 22.2186 99.9244C22.4415 99.9243 22.6496 99.9778 22.843 100.085C23.0308 100.191 23.1989 100.354 23.3472 100.574ZM22.8824 100.887C22.7139 100.637 22.5015 100.524 22.2453 100.546C21.9858 100.571 21.6944 100.692 21.3712 100.91L20.7866 101.305C20.4667 101.52 20.2484 101.743 20.1315 101.972C20.0112 102.203 20.0354 102.444 20.2039 102.694C20.3724 102.944 20.5865 103.056 20.846 103.031C21.1022 103.009 21.3902 102.89 21.7101 102.674L22.2998 102.276C22.6196 102.06 22.8396 101.837 22.9598 101.606C23.0768 101.376 23.051 101.137 22.8824 100.887ZM18.5633 99.2456L18.5903 99.2927L21.3967 97.6798L21.6911 98.1919L18.0433 100.288L17.6108 99.5358L19.8014 96.8516L19.7744 96.8046L16.968 98.4175L16.6737 97.9053L20.3215 95.8089L20.754 96.5614L18.5633 99.2456ZM19.5547 94.393L15.7535 96.1965L14.6244 93.8167L15.1363 93.5738L15.976 95.3437L17.0815 94.8192L16.2728 93.1146L16.7847 92.8717L17.5934 94.5763L18.7534 94.0259L17.9136 92.256L18.4255 92.0132L19.5547 94.393ZM17.3219 89.1708C17.5129 89.67 17.4788 90.109 17.2194 90.488C16.9586 90.8632 16.5035 91.1751 15.8543 91.4236C15.205 91.6722 14.6581 91.7439 14.2133 91.6387C13.7672 91.5298 13.4486 91.2258 13.2575 90.7267C13.1842 90.5353 13.1473 90.3601 13.1467 90.2011C13.1409 90.0398 13.1636 89.8913 13.2149 89.7555C13.2624 89.6211 13.3333 89.4972 13.4275 89.3837C13.5166 89.2678 13.62 89.1615 13.7379 89.0648L14.1469 89.5601C14.0684 89.6246 13.9969 89.6907 13.9324 89.7584C13.868 89.8261 13.8184 89.8988 13.7836 89.9767C13.7489 90.0545 13.7297 90.1393 13.7261 90.231C13.7211 90.319 13.7401 90.4193 13.7832 90.5319C13.8895 90.8096 14.074 90.9713 14.3368 91.017C14.5958 91.0642 14.9054 91.0188 15.2657 90.8809L15.93 90.6266C16.2902 90.4887 16.5529 90.315 16.718 90.1055C16.8793 89.8975 16.9068 89.6546 16.8005 89.3769C16.7574 89.2643 16.7046 89.1769 16.6421 89.1148C16.5781 89.0489 16.5072 88.9986 16.4294 88.9639C16.3516 88.9291 16.266 88.9081 16.1729 88.9007C16.0797 88.8933 15.9823 88.8919 15.8808 88.8963L15.8545 88.2545C16.0069 88.2478 16.1567 88.2572 16.3041 88.2825C16.4463 88.3055 16.5818 88.3504 16.7107 88.4173C16.8358 88.4856 16.9519 88.581 17.059 88.7035C17.161 88.8236 17.2486 88.9794 17.3219 89.1708ZM12.3112 85.9975L15.798 84.95L15.9922 85.5966L12.5055 86.644L12.8853 87.9083L12.3426 88.0713L11.3888 84.8963L11.9315 84.7332L12.3112 85.9975ZM14.608 80.1856L13.5774 80.7305L13.8547 82.0396L15.0177 82.1198L15.1602 82.792L10.7894 82.461L10.5982 81.5588L14.4593 79.4839L14.608 80.1856ZM11.3583 81.8599L11.3682 81.9071L13.2801 82.0319L13.0552 80.9705L11.3583 81.8599ZM10.9447 78.1021L10.9522 78.1558L14.1584 77.7119L14.2394 78.297L10.0719 78.874L9.95285 78.0142L12.9897 76.3463L12.9822 76.2926L9.77595 76.7365L9.69494 76.1514L13.8625 75.5744L13.9815 76.4342L10.9447 78.1021ZM14.3604 59.9224C14.3156 60.1838 14.229 60.4034 14.1006 60.5812C13.969 60.7543 13.8012 60.8886 13.5973 60.984C13.394 61.0756 13.1546 61.1283 12.8791 61.1421C12.6035 61.156 12.2954 61.1337 11.9548 61.0753C11.6182 61.0175 11.3223 60.9362 11.0671 60.8312C10.808 60.7256 10.5978 60.5958 10.4367 60.4418C10.2763 60.2838 10.1648 60.1016 10.1024 59.8951C10.0367 59.6841 10.0263 59.4479 10.0711 59.1865C10.116 58.9251 10.2042 58.7078 10.3358 58.5347C10.4642 58.3569 10.63 58.2223 10.8332 58.1308C11.0372 58.0353 11.2789 57.981 11.5584 57.9678C11.834 57.9539 12.1401 57.9758 12.4767 58.0336C12.8173 58.092 13.1152 58.1737 13.3704 58.2787C13.6255 58.3836 13.8333 58.5151 13.9938 58.6731C14.1549 58.8271 14.2683 59.0096 14.334 59.2207C14.3965 59.4271 14.4053 59.661 14.3604 59.9224ZM13.8079 59.8276C13.8589 59.5306 13.784 59.3016 13.5833 59.1408C13.3786 58.9793 13.0842 58.8656 12.7 58.7997L12.0049 58.6804C11.6247 58.6152 11.3131 58.6249 11.0703 58.7096C10.8235 58.7937 10.6746 58.9842 10.6236 59.2813C10.5726 59.5783 10.6495 59.8076 10.8542 59.9691C11.0549 60.1299 11.3454 60.243 11.7256 60.3082L12.4266 60.4285C12.8068 60.4937 13.1204 60.4843 13.3672 60.4003C13.61 60.3155 13.7569 60.1247 13.8079 59.8276ZM15.2411 55.624C15.1124 56.1427 14.8333 56.4833 14.4037 56.6459C13.9752 56.8045 13.4235 56.8001 12.7488 56.6326C12.0741 56.4652 11.5844 56.2111 11.2797 55.8705C10.976 55.5261 10.8886 55.0944 11.0173 54.5757C11.0667 54.3768 11.1366 54.212 11.227 54.0812C11.3145 53.9456 11.4181 53.8368 11.5378 53.7547C11.6536 53.6717 11.7827 53.6105 11.9249 53.5713C12.0642 53.5272 12.2098 53.4992 12.3619 53.4872L12.4141 54.1275C12.3128 54.1354 12.2163 54.1487 12.1247 54.1674C12.0332 54.1861 11.9509 54.2174 11.8778 54.2614C11.8048 54.3054 11.7406 54.364 11.6852 54.4372C11.6307 54.5065 11.589 54.5996 11.5599 54.7166C11.4883 55.0052 11.5472 55.2434 11.7366 55.4312C11.9221 55.618 12.202 55.7579 12.5764 55.8508L13.2668 56.0221C13.6412 56.115 13.956 56.1228 14.2112 56.0453C14.4625 55.9669 14.624 55.7834 14.6956 55.4948C14.7247 55.3778 14.7313 55.276 14.7156 55.1893C14.7008 55.0986 14.6714 55.0168 14.6274 54.9438C14.5834 54.8708 14.5253 54.8046 14.4531 54.7453C14.3809 54.686 14.3018 54.6291 14.216 54.5746L14.5615 54.0331C14.6903 54.1148 14.8079 54.2081 14.9143 54.3132C15.0178 54.4134 15.1033 54.5278 15.1708 54.6563C15.2343 54.7839 15.275 54.9286 15.2928 55.0903C15.3077 55.2472 15.2905 55.4251 15.2411 55.624ZM15.904 52.8381L11.923 51.4768L12.7753 48.9844L13.3114 49.1677L12.6776 51.0214L13.8354 51.4173L14.4458 49.6321L14.982 49.8154L14.3715 51.6006L15.5863 52.016L16.2202 50.1624L16.7563 50.3457L15.904 52.8381ZM12.0788 50.0713L11.7656 50.391L10.9165 49.5209L11.3622 49.0745L12.0788 50.0713ZM18.2133 46.7216L17.0568 46.5752L16.5313 47.8059L17.437 48.5399L17.1671 49.1719L13.7806 46.3889L14.1428 45.5407L18.495 46.062L18.2133 46.7216ZM14.5917 46.224L14.5727 46.2683L16.0655 47.4693L16.4915 46.4715L14.5917 46.224ZM16.4183 42.9063L16.3934 42.9545L19.2691 44.4404L18.9979 44.9652L15.2601 43.0338L15.6586 42.2627L19.1014 42.6508L19.1263 42.6026L16.2507 41.1167L16.5219 40.5919L20.2597 42.5233L19.8612 43.2944L16.4183 42.9063ZM21.7799 40.0563C21.6395 40.2814 21.4763 40.4519 21.2903 40.5679C21.1029 40.6784 20.8968 40.7393 20.6719 40.7505C20.4492 40.7584 20.2076 40.7166 19.9473 40.6253C19.6869 40.5339 19.4102 40.3968 19.117 40.2138C18.8272 40.0331 18.584 39.8458 18.3875 39.6522C18.1875 39.4564 18.0421 39.2568 17.9512 39.0533C17.8624 38.8463 17.8282 38.6355 17.8484 38.4208C17.8674 38.2006 17.9471 37.9779 18.0875 37.7529C18.2279 37.5279 18.3917 37.3601 18.579 37.2497C18.7651 37.1336 18.9695 37.0717 19.1923 37.0639C19.4171 37.0526 19.6615 37.0937 19.9252 37.1872C20.1855 37.2786 20.4606 37.4146 20.7504 37.5954C21.0436 37.7783 21.2885 37.9666 21.485 38.1602C21.6816 38.3539 21.8242 38.5542 21.913 38.7611C22.0039 38.9646 22.0398 39.1765 22.0209 39.3968C22.0006 39.6115 21.9203 39.8313 21.7799 40.0563ZM21.3043 39.7596C21.4638 39.5039 21.4811 39.2637 21.3561 39.0389C21.2277 38.812 20.9981 38.5953 20.6674 38.389L20.069 38.0158C19.7417 37.8116 19.4496 37.7028 19.1928 37.6894C18.9325 37.6738 18.7226 37.7939 18.5631 38.0496C18.4036 38.3053 18.388 38.5466 18.5164 38.7736C18.6414 38.9984 18.8676 39.2129 19.1949 39.417L19.7983 39.7935C20.1257 39.9977 20.4194 40.1075 20.6797 40.1231C20.9366 40.1365 21.1448 40.0153 21.3043 39.7596ZM24.136 36.5427C23.9186 36.8368 23.6842 37.0458 23.4327 37.1697C23.1812 37.2936 22.922 37.3568 22.6552 37.3595L22.5788 36.7632C22.8294 36.7487 23.0457 36.6961 23.2275 36.6057C23.4061 36.5128 23.5634 36.3743 23.6996 36.1901C23.8573 35.9768 23.9294 35.7778 23.9161 35.5931C23.9052 35.4051 23.8092 35.2442 23.6283 35.1104C23.4829 35.0029 23.3403 34.9625 23.2007 34.9892C23.0578 35.0135 22.8933 35.1143 22.7073 35.2916L22.3768 35.6169C22.2315 35.7594 22.0891 35.8641 21.9498 35.9309C21.8071 35.9954 21.6704 36.0317 21.5394 36.0398C21.4052 36.0456 21.2761 36.0276 21.152 35.9859C21.0271 35.9385 20.9081 35.873 20.7951 35.7894C20.4752 35.5529 20.3093 35.2703 20.2973 34.9417C20.2822 34.6107 20.4084 34.2642 20.676 33.9023C20.8742 33.6341 21.0863 33.4386 21.3121 33.3156C21.537 33.1871 21.77 33.122 22.0111 33.1203L22.0996 33.7105C21.9172 33.7206 21.7443 33.7651 21.5809 33.8442C21.4167 33.9177 21.2653 34.0481 21.1267 34.2356C20.9786 34.4359 20.9088 34.6216 20.9172 34.7928C20.9247 34.9583 21.0109 35.1019 21.1757 35.2238C21.3147 35.3265 21.4544 35.3673 21.5949 35.3463C21.7346 35.3196 21.8998 35.2144 22.0906 35.0306L22.4188 34.7185C22.6983 34.4554 22.9734 34.3165 23.2441 34.3017C23.5117 34.2846 23.765 34.3644 24.0041 34.5412C24.1592 34.6559 24.2811 34.7885 24.3697 34.9389C24.4607 35.0862 24.5121 35.2466 24.5237 35.4201C24.5378 35.5904 24.5133 35.7722 24.4503 35.9655C24.3865 36.1532 24.2818 36.3456 24.136 36.5427ZM31.2542 29.8345L30.7079 30.3793C30.5144 30.5723 30.3239 30.6601 30.1364 30.6428C29.9517 30.6283 29.7771 30.5386 29.6125 30.3735L29.4507 30.2113C29.2744 30.3361 29.091 30.414 28.9006 30.445C28.7102 30.476 28.5141 30.4644 28.3125 30.4101C28.1108 30.3501 27.9049 30.249 27.6949 30.1066C27.4848 29.9643 27.2705 29.7835 27.052 29.5644C26.8108 29.3226 26.6165 29.085 26.4691 28.8518C26.3188 28.6158 26.2225 28.3883 26.1802 28.1695C26.1407 27.9478 26.1552 27.7347 26.2237 27.5302C26.2922 27.32 26.4203 27.1213 26.6081 26.934C26.7959 26.7468 26.9936 26.6206 27.2011 26.5555C27.4086 26.4848 27.6217 26.4709 27.8405 26.5138C28.062 26.5539 28.2906 26.6494 28.5263 26.8003C28.7591 26.9484 28.9961 27.1433 29.2373 27.3852C29.6742 27.8234 29.9535 28.2457 30.0752 28.6522C30.1968 29.0587 30.1309 29.4366 29.8775 29.7857L30.2308 30.14L30.8966 29.476L31.2542 29.8345ZM29.2853 29.6187C29.4987 29.4058 29.5701 29.1758 29.4994 28.9285C29.4259 28.6783 29.2515 28.4153 28.9762 28.1393L28.4782 27.6399C28.2058 27.3667 27.9461 27.1945 27.699 27.1231C27.449 27.0489 27.2173 27.1182 27.0039 27.331C26.7905 27.5438 26.7206 27.7753 26.7941 28.0254C26.8648 28.2727 27.0364 28.533 27.3088 28.8061L27.811 29.3097C28.0834 29.5829 28.3446 29.7566 28.5946 29.8308C28.8417 29.9022 29.0719 29.8315 29.2853 29.6187ZM29.4862 24.3086L31.1596 26.28C31.2714 26.4117 31.3759 26.5286 31.473 26.6306C31.5732 26.7301 31.6742 26.8025 31.776 26.8478C31.8752 26.8902 31.9784 26.9 32.0858 26.8774C32.1931 26.8549 32.3111 26.789 32.4398 26.6797C32.5684 26.5705 32.6526 26.4648 32.6924 26.3626C32.7321 26.2603 32.7391 26.1568 32.7135 26.0521C32.6852 25.9443 32.6286 25.8342 32.5438 25.7218C32.4619 25.6067 32.3651 25.4834 32.2533 25.3516L30.5799 23.3802L31.0946 22.9433L32.69 24.8229C32.885 25.0526 33.0428 25.2665 33.1635 25.4645C33.2846 25.6569 33.3563 25.8438 33.3785 26.0252C33.3981 26.2036 33.3622 26.3817 33.2707 26.5595C33.1822 26.7348 33.0262 26.9173 32.8025 27.1071C32.5789 27.2969 32.3719 27.4226 32.1816 27.484C31.9943 27.5428 31.8143 27.548 31.6415 27.4997C31.466 27.4483 31.2917 27.3485 31.1186 27.2003C30.9458 27.0465 30.7619 26.8547 30.5669 26.625L28.9715 24.7455L29.4862 24.3086ZM35.055 25.1491L32.5696 21.7543L34.695 20.1983L35.0297 20.6554L33.4491 21.8127L34.1719 22.8L35.6942 21.6855L36.0289 22.1426L34.5066 23.2572L35.265 24.2931L36.8457 23.1358L37.1804 23.593L35.055 25.1491ZM41.1897 17.3007L41.1415 17.3256L42.6278 20.201L42.1031 20.4723L40.1712 16.7347L40.9422 16.3362L43.5262 18.6442L43.5744 18.6193L42.0881 15.7439L42.6129 15.4726L44.5448 19.2101L43.7737 19.6087L41.1897 17.3007ZM47.2097 18.0701C46.9655 18.1734 46.7339 18.219 46.5149 18.2069C46.2982 18.1896 46.0945 18.1208 45.9041 18.0007C45.7173 17.879 45.5438 17.7059 45.3833 17.4814C45.2229 17.257 45.0754 16.9856 44.9407 16.6673C44.8076 16.3527 44.7164 16.0597 44.667 15.7883C44.616 15.5131 44.6119 15.2662 44.6546 15.0474C44.701 14.8271 44.7942 14.6349 44.9343 14.4709C45.0765 14.3017 45.2697 14.1654 45.514 14.0621C45.7582 13.9587 45.9888 13.9157 46.2056 13.9331C46.4245 13.9452 46.6273 14.0121 46.8141 14.1338C47.0045 14.2539 47.1807 14.4281 47.3427 14.6562C47.5031 14.8807 47.6499 15.1502 47.783 15.4648C47.9176 15.7831 48.0097 16.0779 48.059 16.3494C48.1084 16.6208 48.1099 16.8667 48.0635 17.0871C48.0208 17.3058 47.9284 17.4999 47.7862 17.6691C47.6461 17.8331 47.454 17.9667 47.2097 18.0701ZM46.9913 17.5538C47.2688 17.4364 47.4212 17.2498 47.4482 16.994C47.4737 16.7345 47.4105 16.4253 47.2586 16.0663L46.9838 15.4168C46.8335 15.0615 46.6571 14.8045 46.4547 14.6458C46.2507 14.4834 46.01 14.4609 45.7324 14.5783C45.4549 14.6958 45.3033 14.8842 45.2779 15.1437C45.2508 15.3995 45.3124 15.705 45.4628 16.0603L45.7399 16.7154C45.8902 17.0706 46.0674 17.3295 46.2713 17.4919C46.4737 17.6506 46.7137 17.6712 46.9913 17.5538ZM51.1576 16.5477C50.8108 16.6639 50.4989 16.7005 50.2218 16.6577C49.9447 16.6149 49.6962 16.518 49.4761 16.3671L49.7556 15.8349C49.9692 15.9668 50.1765 16.0478 50.3773 16.078C50.5769 16.1044 50.7852 16.0813 51.0024 16.0085C51.2539 15.9243 51.4272 15.8027 51.5223 15.6437C51.6212 15.4835 51.6349 15.2967 51.5634 15.0833C51.506 14.9118 51.4124 14.7969 51.2827 14.7387C51.1517 14.6766 50.9592 14.6648 50.7051 14.7033L50.2478 14.7801C50.047 14.8135 49.8704 14.8175 49.7179 14.7923C49.5641 14.7633 49.4312 14.7146 49.3193 14.6461C49.2061 14.5739 49.1107 14.485 49.033 14.3797C48.9579 14.2692 48.898 14.1473 48.8533 14.014C48.727 13.6367 48.7532 13.3101 48.932 13.0341C49.1095 12.7543 49.4116 12.5429 49.8384 12.4C50.1547 12.2941 50.4405 12.2555 50.696 12.2844C50.954 12.3082 51.1822 12.3886 51.3806 12.5255L51.1145 13.0596C50.9593 12.9632 50.7922 12.9006 50.6129 12.8716C50.4363 12.8376 50.2374 12.8575 50.0164 12.9315C49.7802 13.0107 49.6164 13.1227 49.5251 13.2677C49.4364 13.4076 49.4245 13.5747 49.4896 13.7691C49.5445 13.9329 49.6355 14.0465 49.7627 14.1099C49.8924 14.1682 50.0881 14.1768 50.3498 14.1357L50.7976 14.0684C51.1775 14.0132 51.4825 14.0573 51.7127 14.2005C51.9417 14.34 52.1034 14.5507 52.1978 14.8327C52.259 15.0156 52.2828 15.1941 52.2691 15.3682C52.2592 15.541 52.2092 15.7018 52.1192 15.8506C52.033 15.9982 51.9086 16.133 51.7461 16.2553C51.5862 16.3724 51.39 16.4699 51.1576 16.5477ZM59.5699 14.3908C59.043 14.4805 58.6191 14.361 58.2983 14.0325C57.9814 13.7032 57.7646 13.196 57.648 12.5106C57.5313 11.8253 57.5681 11.2749 57.7583 10.8593C57.9524 10.4431 58.3129 10.1902 58.8398 10.1005C59.0418 10.0662 59.2208 10.0642 59.3769 10.0947C59.5362 10.1206 59.6774 10.172 59.8005 10.2489C59.923 10.3218 60.0307 10.4156 60.1235 10.5302C60.2197 10.6402 60.3037 10.7624 60.3755 10.897L59.8097 11.2011C59.7618 11.1115 59.711 11.0284 59.6573 10.9519C59.6035 10.8755 59.5418 10.8126 59.4723 10.7633C59.4028 10.714 59.3234 10.6786 59.2341 10.6571C59.1488 10.6349 59.0467 10.6339 58.9279 10.6542C58.6347 10.7041 58.44 10.8534 58.3438 11.1021C58.2468 11.3469 58.2307 11.6594 58.2954 12.0397L58.4148 12.7409C58.4795 13.1212 58.5984 13.4128 58.7715 13.6157C58.944 13.8146 59.1768 13.8891 59.4699 13.8392C59.5888 13.819 59.6848 13.7843 59.7579 13.7352C59.835 13.6854 59.8983 13.6257 59.9476 13.5561C59.9969 13.4866 60.0343 13.4069 60.0597 13.3169C60.0852 13.227 60.1057 13.1318 60.1212 13.0313L60.7557 13.1312C60.7325 13.2819 60.694 13.4271 60.6403 13.5667C60.5899 13.7016 60.5193 13.8257 60.4285 13.939C60.337 14.0483 60.2208 14.1435 60.0797 14.2246C59.9419 14.301 59.7719 14.3564 59.5699 14.3908ZM63.679 13.8327C63.4149 13.8569 63.1804 13.83 62.9755 13.7519C62.7743 13.6695 62.6012 13.5421 62.4563 13.3698C62.3154 13.1971 62.2026 12.9794 62.118 12.7168C62.0334 12.4542 61.9753 12.1508 61.9438 11.8067C61.9126 11.4665 61.9148 11.1596 61.9502 10.886C61.9853 10.6084 62.0564 10.3719 62.1636 10.1764C62.2748 9.98063 62.422 9.8259 62.6053 9.71225C62.7922 9.59424 63.0177 9.52313 63.2818 9.49893C63.5459 9.47472 63.7786 9.50384 63.9799 9.58627C64.1848 9.66434 64.3577 9.78973 64.4986 9.96244C64.6435 10.1348 64.7585 10.3543 64.8434 10.6209C64.928 10.8835 64.9859 11.1849 65.0171 11.525C65.0486 11.8691 65.0467 12.178 65.0112 12.4516C64.9758 12.7252 64.9024 12.96 64.7913 13.1558C64.6841 13.3512 64.537 13.5079 64.3501 13.626C64.1668 13.7396 63.9431 13.8085 63.679 13.8327ZM63.6279 13.2745C63.928 13.247 64.1298 13.1155 64.2333 12.88C64.3365 12.6406 64.3703 12.3268 64.3347 11.9386L64.2703 11.2363C64.2351 10.8522 64.1452 10.5537 64.0006 10.341C63.8557 10.1243 63.6331 10.0297 63.333 10.0572C63.0329 10.0847 62.8312 10.2181 62.7281 10.4576C62.6246 10.6931 62.5904 11.0029 62.6256 11.387L62.6905 12.0953C62.7258 12.4795 62.8158 12.7799 62.9608 12.9967C63.1054 13.2094 63.3277 13.302 63.6279 13.2745ZM67.1613 10.2831L67.107 10.2839L67.1546 13.5204L66.564 13.5291L66.5021 9.32223L67.37 9.30947L68.6531 12.5278L68.7074 12.527L68.6598 9.2905L69.2504 9.28182L69.3123 13.4887L68.4444 13.5014L67.1613 10.2831ZM70.9233 13.5052L71.1881 9.30624L73.817 9.47203L73.7813 10.0375L71.8262 9.91421L71.7492 11.1354L73.6321 11.2541L73.5964 11.8196L71.7135 11.7009L71.6327 12.9822L73.5878 13.1055L73.5522 13.671L70.9233 13.5052ZM76.5734 14.0847C76.0442 14.0095 75.6769 13.7666 75.4715 13.3558C75.27 12.9457 75.2182 12.3965 75.316 11.7082C75.4138 11.0199 75.6165 10.5069 75.9243 10.1691C76.236 9.83184 76.6565 9.70082 77.1856 9.776C77.3885 9.80483 77.5596 9.85756 77.6989 9.93417C77.8427 10.0074 77.9616 10.0993 78.0554 10.2101C78.1499 10.3169 78.2238 10.439 78.2773 10.5765C78.3354 10.7106 78.3781 10.8526 78.4055 11.0026L77.774 11.1199C77.7557 11.0199 77.7326 10.9253 77.7047 10.8361C77.6768 10.7468 77.6372 10.6682 77.586 10.6C77.5348 10.5319 77.47 10.4739 77.3915 10.4263C77.3171 10.3791 77.2201 10.3471 77.1008 10.3302C76.8064 10.2883 76.5754 10.3712 76.4079 10.5787C76.241 10.7823 76.1304 11.0751 76.0761 11.457L75.9761 12.1612C75.9218 12.5431 75.9462 12.8571 76.0493 13.1031C76.1529 13.3451 76.3519 13.487 76.6463 13.5288C76.7656 13.5458 76.8676 13.542 76.9523 13.5175C77.0409 13.4936 77.1193 13.456 77.1875 13.4048C77.2556 13.3536 77.3155 13.2891 77.3672 13.2112C77.4189 13.1333 77.4674 13.0489 77.5128 12.9579L78.0867 13.2465C78.0186 13.3829 77.9377 13.5094 77.844 13.626C77.7549 13.7391 77.6498 13.8358 77.5288 13.916C77.4084 13.9923 77.2687 14.0475 77.1096 14.0817C76.955 14.1125 76.7763 14.1135 76.5734 14.0847ZM81.7676 11.2324L81.0055 14.7924L80.3453 14.6511L81.1074 11.0911L79.8166 10.8147L79.9352 10.2607L83.177 10.9547L83.0584 11.5087L81.7676 11.2324ZM85.7535 16.046L85.773 14.8804L84.4923 14.4923L83.8614 15.4726L83.2038 15.2733L85.6009 11.6035L86.4835 11.871L86.44 16.2541L85.7535 16.046ZM85.8533 12.3917L85.8071 12.3777L84.7761 13.9925L85.8144 14.3072L85.8533 12.3917ZM89.3438 13.84L89.2931 13.8206L88.1377 16.8442L87.5859 16.6334L89.0877 12.7032L89.8985 13.0131L89.8974 16.4778L89.948 16.4971L91.1034 13.4735L91.6552 13.6844L90.1534 17.6145L89.3426 17.3047L89.3438 13.84ZM103.623 25.6001C103.417 25.4337 103.267 25.2511 103.174 25.0525C103.087 24.8533 103.052 24.6413 103.067 24.4167C103.086 24.1946 103.157 23.9598 103.279 23.7124C103.401 23.4649 103.57 23.2066 103.787 22.9375C104.001 22.6715 104.216 22.4526 104.432 22.2808C104.651 22.1058 104.866 21.9855 105.079 21.9197C105.295 21.8564 105.509 21.8477 105.72 21.8937C105.936 21.939 106.147 22.0448 106.354 22.2112C106.56 22.3776 106.707 22.5604 106.794 22.7597C106.887 22.9583 106.924 23.1687 106.905 23.3908C106.889 23.6154 106.819 23.853 106.695 24.1036C106.573 24.3511 106.405 24.6078 106.19 24.8738C105.973 25.1429 105.757 25.3634 105.541 25.5352C105.325 25.707 105.109 25.8246 104.893 25.8878C104.68 25.9536 104.466 25.9639 104.249 25.9185C104.039 25.8726 103.83 25.7665 103.623 25.6001ZM103.975 25.1636C104.21 25.3526 104.446 25.3986 104.684 25.3016C104.925 25.2014 105.168 24.9995 105.412 24.696L105.855 24.1468C106.097 23.8464 106.24 23.5695 106.284 23.3161C106.331 23.0596 106.237 22.8368 106.002 22.6477C105.767 22.4586 105.53 22.4142 105.289 22.5144C105.051 22.6115 104.811 22.8102 104.569 23.1106L104.122 23.6645C103.88 23.9649 103.736 24.2433 103.689 24.4998C103.645 24.7532 103.74 24.9745 103.975 25.1636ZM106.951 28.4606C106.56 28.0959 106.398 27.6864 106.465 27.2321C106.535 26.7804 106.807 26.3005 107.281 25.7923C107.755 25.284 108.215 24.9796 108.661 24.8789C109.11 24.7809 109.529 24.9143 109.92 25.279C110.07 25.4188 110.18 25.56 110.25 25.7026C110.326 25.8449 110.371 25.9884 110.385 26.1329C110.401 26.2745 110.392 26.417 110.357 26.5604C110.327 26.7035 110.281 26.8444 110.218 26.9831L109.633 26.7176C109.675 26.6251 109.71 26.5343 109.739 26.4452C109.767 26.3561 109.779 26.269 109.776 26.1838C109.774 26.0986 109.754 26.014 109.717 25.93C109.682 25.8487 109.621 25.7669 109.533 25.6847C109.316 25.4818 109.079 25.4174 108.823 25.4917C108.569 25.563 108.311 25.7396 108.048 26.0217L107.563 26.5417C107.299 26.8237 107.14 27.095 107.083 27.3557C107.03 27.6134 107.111 27.8438 107.329 28.0466C107.417 28.1289 107.503 28.1842 107.586 28.2126C107.673 28.2438 107.758 28.2579 107.844 28.2549C107.929 28.252 108.015 28.2334 108.102 28.1991C108.189 28.1648 108.277 28.1234 108.366 28.0748L108.671 28.64C108.537 28.7129 108.399 28.7703 108.255 28.8122C108.117 28.8539 107.976 28.873 107.831 28.8695C107.688 28.863 107.542 28.8283 107.392 28.7652C107.248 28.702 107.101 28.6004 106.951 28.4606ZM109.065 30.393L112.18 27.5651L113.95 29.5155L113.531 29.8963L112.214 28.4458L111.308 29.2683L112.576 30.6652L112.157 31.046L110.888 29.6491L109.938 30.512L111.255 31.9625L110.835 32.3434L109.065 30.393ZM113.335 28.3805L113.206 27.9519L114.379 27.6287L114.554 28.2346L113.335 28.3805ZM113.31 35.3659L113.994 34.4224L113.168 33.3698L112.089 33.8107L111.665 33.2701L115.733 31.6398L116.303 32.3653L113.752 35.9302L113.31 35.3659ZM115.488 32.4302L115.458 32.3923L113.687 33.1232L114.357 33.9767L115.488 32.4302ZM117.523 35.6441L117.492 35.5989L114.798 37.3918L114.47 36.9L117.973 34.5695L118.454 35.2922L116.444 38.1139L116.474 38.1591L119.169 36.3662L119.496 36.858L115.993 39.1884L115.512 38.4658L117.523 35.6441ZM117.418 41.7122C117.289 41.4808 117.218 41.2556 117.206 41.0367C117.199 40.8193 117.246 40.6093 117.344 40.4069C117.445 40.2079 117.598 40.0164 117.803 39.8324C118.009 39.6483 118.262 39.4719 118.564 39.3032C118.862 39.1364 119.143 39.0136 119.408 38.9348C119.675 38.854 119.92 38.8228 120.143 38.8413C120.367 38.8633 120.568 38.9349 120.746 39.0561C120.93 39.1789 121.087 39.3561 121.216 39.5875C121.346 39.819 121.414 40.0434 121.42 40.2608C121.432 40.4797 121.388 40.6887 121.287 40.8876C121.189 41.0901 121.035 41.2843 120.826 41.4703C120.62 41.6544 120.369 41.8298 120.071 41.9966C119.769 42.1653 119.486 42.2891 119.222 42.3679C118.957 42.4467 118.713 42.4752 118.489 42.4532C118.267 42.4347 118.064 42.3641 117.88 42.2413C117.702 42.1201 117.548 41.9437 117.418 41.7122ZM117.907 41.4386C118.055 41.7016 118.257 41.8325 118.514 41.8314C118.775 41.8283 119.075 41.7315 119.415 41.5412L120.031 41.1969C120.367 41.0086 120.604 40.8051 120.739 40.5866C120.878 40.366 120.874 40.1242 120.727 39.8612C120.58 39.5982 120.376 39.4682 120.115 39.4713C119.858 39.4725 119.561 39.5672 119.224 39.7556L118.604 40.1028C118.267 40.2912 118.029 40.4956 117.89 40.7161C117.754 40.9347 117.76 41.1755 117.907 41.4386ZM119.371 45.4662C119.216 45.1349 119.144 44.8292 119.155 44.549C119.166 44.2689 119.234 44.0109 119.359 43.7751L119.919 43.9922C119.813 44.2195 119.756 44.4346 119.748 44.6376C119.745 44.8388 119.792 45.0432 119.889 45.2507C120.001 45.491 120.141 45.6493 120.31 45.7257C120.481 45.8057 120.668 45.798 120.872 45.7028C121.036 45.6262 121.139 45.5202 121.182 45.3847C121.229 45.2475 121.219 45.0549 121.152 44.8068L121.023 44.3612C120.967 44.1655 120.943 43.9905 120.951 43.8361C120.962 43.68 120.995 43.5425 121.051 43.4235C121.11 43.3028 121.187 43.1979 121.283 43.1087C121.384 43.0215 121.498 42.9482 121.626 42.8886C121.986 42.7202 122.314 42.7091 122.608 42.8553C122.906 42.9998 123.151 43.2759 123.341 43.6837C123.483 43.9858 123.553 44.2654 123.554 44.5225C123.559 44.7816 123.506 45.0174 123.392 45.2302L122.831 45.0266C122.909 44.8614 122.953 44.6882 122.961 44.5068C122.975 44.3274 122.932 44.1322 122.833 43.921C122.728 43.6953 122.598 43.5453 122.444 43.4711C122.294 43.3989 122.127 43.4061 121.941 43.4929C121.785 43.5661 121.682 43.6694 121.634 43.803C121.591 43.9385 121.604 44.1339 121.675 44.3892L121.793 44.8265C121.891 45.1976 121.882 45.5057 121.766 45.7507C121.653 45.994 121.462 46.1786 121.193 46.3045C121.018 46.3862 120.844 46.4301 120.669 46.4363C120.496 46.4461 120.331 46.4147 120.173 46.3422C120.016 46.2734 119.868 46.1652 119.728 46.0177C119.594 45.8721 119.474 45.6883 119.371 45.4662ZM121.814 54.9381L121.599 54.197C121.523 53.9345 121.538 53.7253 121.643 53.5692C121.744 53.4143 121.907 53.3044 122.131 53.2395L122.351 53.1758C122.327 52.9612 122.346 52.7629 122.411 52.5811C122.475 52.3993 122.58 52.233 122.725 52.0823C122.874 51.9344 123.062 51.8026 123.288 51.687C123.514 51.5713 123.775 51.4704 124.072 51.3843C124.4 51.2893 124.702 51.2332 124.978 51.2162C125.257 51.1981 125.502 51.2231 125.715 51.2913C125.928 51.3634 126.108 51.4786 126.254 51.6371C126.405 51.7982 126.518 52.0062 126.592 52.2609C126.666 52.5157 126.681 52.7497 126.638 52.9629C126.6 53.1788 126.51 53.3724 126.367 53.5435C126.225 53.7184 126.032 53.8728 125.786 54.0068C125.544 54.1396 125.259 54.2535 124.931 54.3486C124.337 54.5208 123.832 54.5624 123.417 54.4734C123.002 54.3844 122.703 54.1449 122.519 53.7548L122.038 53.894L122.3 54.7972L121.814 54.9381ZM122.95 53.316C123.034 53.6055 123.201 53.7787 123.452 53.8358C123.707 53.8917 124.021 53.8654 124.396 53.7569L125.073 53.5607C125.444 53.4533 125.72 53.3085 125.901 53.1262C126.087 52.9428 126.137 52.7064 126.053 52.4169C125.97 52.1274 125.8 51.9548 125.546 51.8988C125.295 51.8418 124.984 51.867 124.614 51.9743L123.93 52.1723C123.56 52.2796 123.282 52.425 123.097 52.6084C122.915 52.7906 122.866 53.0265 122.95 53.316ZM127.508 56.0519L124.974 56.5675C124.805 56.602 124.652 56.6372 124.516 56.6731C124.381 56.713 124.268 56.7665 124.18 56.8338C124.095 56.9003 124.036 56.986 124.004 57.0909C123.972 57.1958 123.973 57.331 124.007 57.4964C124.04 57.6618 124.093 57.7865 124.163 57.8706C124.233 57.9547 124.321 58.0107 124.425 58.0388C124.533 58.066 124.657 58.0695 124.796 58.0493C124.936 58.0331 125.091 58.0078 125.26 57.9733L127.794 57.4577L127.929 58.1192L125.513 58.6108C125.218 58.6709 124.954 58.7061 124.723 58.7163C124.496 58.7297 124.297 58.7024 124.128 58.6344C123.962 58.5656 123.823 58.4482 123.712 58.2823C123.601 58.1203 123.516 57.8956 123.458 57.6082C123.399 57.3207 123.389 57.0788 123.427 56.8824C123.465 56.69 123.548 56.5298 123.673 56.4017C123.803 56.2728 123.974 56.1682 124.188 56.0879C124.406 56.0107 124.662 55.942 124.958 55.882L127.374 55.3904L127.508 56.0519ZM124.085 60.5261L128.26 59.9994L128.589 62.6128L128.027 62.6837L127.782 60.7402L126.568 60.8933L126.804 62.7652L126.242 62.8361L126.006 60.9643L124.732 61.125L124.977 63.0686L124.415 63.1395L124.085 60.5261ZM127.964 69.6978L127.965 69.6436L124.73 69.549L124.747 68.9585L128.953 69.0815L128.927 69.9491L125.656 71.0896L125.654 71.1439L128.89 71.2385L128.872 71.8289L124.667 71.7059L124.692 70.8383L127.964 69.6978ZM124.375 74.5892C124.402 74.3254 124.474 74.1007 124.591 73.9149C124.711 73.7335 124.869 73.5885 125.067 73.4798C125.263 73.3752 125.499 73.3069 125.773 73.275C126.047 73.2431 126.356 73.2451 126.7 73.2811C127.039 73.3167 127.34 73.3785 127.601 73.4665C127.867 73.5549 128.085 73.6706 128.256 73.8138C128.426 73.9609 128.55 74.1354 128.625 74.3373C128.705 74.5436 128.731 74.7786 128.703 75.0424C128.675 75.3062 128.602 75.5288 128.482 75.7101C128.365 75.8959 128.209 76.0411 128.012 76.1458C127.815 76.2544 127.577 76.3245 127.299 76.356C127.025 76.3879 126.718 76.3861 126.378 76.3505C126.034 76.3145 125.732 76.2525 125.47 76.1645C125.209 76.0766 124.993 75.959 124.822 75.8119C124.652 75.6687 124.526 75.494 124.447 75.2877C124.371 75.0858 124.347 74.853 124.375 74.5892ZM124.932 74.6476C124.901 74.9473 124.991 75.1709 125.201 75.3182C125.416 75.4659 125.718 75.5601 126.105 75.6007L126.807 75.6741C127.19 75.7143 127.5 75.6842 127.737 75.5837C127.978 75.4837 128.114 75.2838 128.146 74.984C128.177 74.6843 128.085 74.4605 127.87 74.3128C127.659 74.1655 127.362 74.0717 126.979 74.0315L126.271 73.9575C125.887 73.9173 125.575 73.9472 125.334 74.0473C125.098 74.1477 124.964 74.3478 124.932 74.6476ZM123.8 78.7812C123.866 78.4215 123.984 78.1306 124.155 77.9087C124.327 77.6867 124.532 77.5158 124.77 77.396L125.101 77.8977C124.882 78.0211 124.711 78.1635 124.588 78.3247C124.469 78.4867 124.388 78.6804 124.347 78.9057C124.299 79.1666 124.322 79.3771 124.415 79.5371C124.508 79.7011 124.665 79.8033 124.886 79.8437C125.064 79.8762 125.21 79.8498 125.324 79.7643C125.441 79.6796 125.545 79.5167 125.634 79.2756L125.787 78.838C125.855 78.6461 125.937 78.4895 126.032 78.3681C126.132 78.2474 126.239 78.1546 126.353 78.0897C126.471 78.0254 126.595 77.9847 126.724 77.9676C126.857 77.9551 126.993 77.9616 127.131 77.9868C127.523 78.0584 127.796 78.239 127.951 78.5289C128.111 78.8194 128.15 79.1861 128.069 79.6288C128.009 79.9569 127.905 80.2258 127.756 80.4356C127.611 80.65 127.43 80.8111 127.214 80.9187L126.875 80.4278C127.035 80.3384 127.17 80.2223 127.282 80.0793C127.397 79.9411 127.476 79.7573 127.518 79.528C127.562 79.2829 127.543 79.0854 127.461 78.9355C127.381 78.7902 127.24 78.6991 127.039 78.6623C126.869 78.6312 126.725 78.6561 126.608 78.7368C126.495 78.8223 126.393 78.9895 126.302 79.2385L126.145 79.6632C126.01 80.0225 125.824 80.2683 125.587 80.4008C125.355 80.5339 125.092 80.5737 124.8 80.5203C124.61 80.4856 124.442 80.4202 124.296 80.3241C124.15 80.232 124.033 80.1106 123.946 79.9599C123.859 79.8132 123.8 79.6391 123.772 79.4378C123.747 79.2412 123.756 79.0223 123.8 78.7812ZM121.633 87.1905C121.809 86.6858 122.118 86.3723 122.561 86.25C123.002 86.1316 123.551 86.1868 124.208 86.4156C124.864 86.6445 125.328 86.9425 125.6 87.3097C125.871 87.6807 125.919 88.1186 125.743 88.6232C125.675 88.8167 125.59 88.9744 125.488 89.0963C125.389 89.2233 125.275 89.3221 125.149 89.3928C125.026 89.4648 124.892 89.5138 124.746 89.5398C124.604 89.5709 124.456 89.5854 124.303 89.5833L124.31 88.941C124.412 88.9424 124.509 88.938 124.602 88.9278C124.695 88.9177 124.78 88.894 124.857 88.857C124.934 88.8199 125.003 88.7675 125.065 88.6997C125.125 88.6357 125.176 88.5468 125.215 88.433C125.313 88.1522 125.276 87.9096 125.105 87.7052C124.938 87.5021 124.672 87.337 124.307 87.21L123.636 86.9758C123.272 86.8488 122.959 86.8121 122.698 86.8657C122.44 86.9207 122.262 87.0885 122.165 87.3693C122.125 87.4831 122.109 87.584 122.117 87.6718C122.123 87.7633 122.145 87.8475 122.182 87.9243C122.219 88.001 122.271 88.0723 122.337 88.138C122.403 88.2037 122.477 88.2677 122.557 88.3298L122.163 88.8371C122.043 88.744 121.934 88.6402 121.838 88.5258C121.744 88.4165 121.67 88.2947 121.614 88.1605C121.563 88.0276 121.535 87.8798 121.533 87.7171C121.532 87.5595 121.566 87.384 121.633 87.1905ZM120.143 91.0601C120.248 90.8168 120.385 90.6241 120.551 90.4818C120.72 90.3448 120.915 90.2542 121.136 90.2098C121.355 90.1691 121.6 90.1747 121.871 90.2265C122.142 90.2784 122.436 90.3731 122.753 90.5107C123.067 90.6466 123.335 90.7958 123.558 90.9583C123.784 91.1223 123.958 91.2983 124.078 91.4862C124.196 91.6777 124.261 91.8811 124.273 92.0965C124.287 92.3171 124.241 92.5491 124.135 92.7924C124.03 93.0357 123.892 93.2258 123.723 93.3627C123.557 93.505 123.364 93.5965 123.144 93.6372C122.924 93.6816 122.676 93.677 122.401 93.6236C122.13 93.5717 121.838 93.4778 121.525 93.3418C121.208 93.2043 120.938 93.0543 120.715 92.8918C120.492 92.7293 120.321 92.5523 120.203 92.3608C120.083 92.1729 120.016 91.9687 120.002 91.7481C119.99 91.5327 120.037 91.3034 120.143 91.0601ZM120.657 91.2833C120.537 91.5597 120.556 91.7999 120.712 92.0037C120.873 92.2092 121.132 92.3895 121.49 92.5446L122.137 92.8253C122.49 92.9789 122.795 93.0433 123.051 93.0186C123.311 92.9955 123.501 92.8457 123.621 92.5692C123.741 92.2927 123.721 92.0518 123.56 91.8463C123.403 91.6425 123.148 91.4638 122.794 91.3102L122.141 91.0271C121.788 90.8736 121.481 90.8084 121.221 90.8315C120.965 90.8562 120.777 91.0068 120.657 91.2833ZM121.57 95.8326L121.596 95.7848L118.743 94.2559L119.022 93.7353L122.73 95.7225L122.32 96.4875L118.884 96.0478L118.858 96.0957L121.711 97.6245L121.432 98.1452L117.724 96.158L118.134 95.3929L121.57 95.8326ZM116.93 97.5596L120.487 99.8079L119.079 102.034L118.6 101.732L119.647 100.076L118.613 99.4219L117.605 101.017L117.126 100.714L118.134 99.1191L117.049 98.433L116.002 100.089L115.523 99.7861L116.93 97.5596ZM113.704 102.233C114.026 101.806 114.416 101.602 114.875 101.62C115.331 101.642 115.837 101.862 116.392 102.281C116.947 102.699 117.299 103.125 117.445 103.557C117.59 103.993 117.501 104.425 117.18 104.852C117.056 105.015 116.927 105.14 116.793 105.224C116.659 105.315 116.521 105.375 116.379 105.403C116.24 105.434 116.097 105.44 115.951 105.42C115.806 105.406 115.661 105.375 115.516 105.326L115.719 104.717C115.815 104.749 115.909 104.775 116.001 104.793C116.092 104.812 116.18 104.816 116.265 104.804C116.349 104.792 116.431 104.763 116.511 104.717C116.588 104.675 116.663 104.606 116.736 104.509C116.915 104.272 116.954 104.03 116.853 103.783C116.755 103.538 116.553 103.3 116.245 103.068L115.677 102.64C115.368 102.407 115.082 102.277 114.817 102.248C114.555 102.222 114.334 102.328 114.155 102.565C114.083 102.661 114.037 102.752 114.017 102.838C113.995 102.928 113.99 103.014 114.002 103.099C114.014 103.183 114.042 103.267 114.085 103.35C114.128 103.433 114.179 103.516 114.236 103.6L113.706 103.962C113.62 103.837 113.548 103.705 113.491 103.567C113.435 103.434 113.401 103.295 113.39 103.15C113.381 103.008 113.4 102.859 113.447 102.703C113.495 102.553 113.581 102.396 113.704 102.233ZM113.672 108.164L110.934 105.764L111.38 105.256L114.117 107.657L114.987 106.664L115.413 107.038L113.227 109.53L112.801 109.157L113.672 108.164ZM107.541 109.314L108.554 109.891L109.51 108.955L108.953 107.93L109.444 107.45L111.51 111.315L110.852 111.961L107.029 109.816L107.541 109.314ZM110.698 111.158L110.732 111.124L109.812 109.444L109.037 110.203L110.698 111.158ZM107.744 113.525L107.785 113.49L105.694 111.02L106.145 110.638L108.863 113.849L108.2 114.41L105.166 112.738L105.125 112.773L107.216 115.244L106.765 115.625L104.047 112.414L104.709 111.853L107.744 113.525Z" fill="#FFF2F2"/>
<circle cx="97.6655" cy="18.7978" r="1.21038" fill="#FFF2F2"/>
<circle cx="11.1401" cy="69.1313" r="1.21038" fill="#FFF2F2"/>
<circle cx="97.6655" cy="118.506" r="1.21038" fill="#FFF2F2"/>
</svg>
