<svg width="142" height="142" viewBox="0 0 142 142" fill="none" xmlns="http://www.w3.org/2000/svg">
<circle cx="70.9756" cy="69.9746" r="69" fill="#02751F"/>
<path d="M80.0493 79.2481L80.0493 72.8524L86.457 72.8524L86.457 66.4157L80.0204 66.4157L80.0204 72.8115L73.6126 72.8115L73.6126 79.1928L67.3011 79.1928L67.3011 72.7922L60.8934 72.7922L60.8934 66.3965L54.4567 66.3965L54.4567 72.8331L60.8645 72.8331L60.8645 79.2289L67.2289 79.2289L67.2289 85.6029L60.8091 85.6029L60.8091 91.9987L54.4014 91.9987L54.4014 98.4353L60.838 98.4353L60.838 92.0396L67.2458 92.0396L67.2458 85.6294L73.5573 85.6294L73.5573 92.0203L79.965 92.0203L79.965 98.4161L86.4017 98.4161L86.4017 91.9794L79.9939 91.9794L79.9939 85.5837L73.6656 85.5837L73.6656 79.2481L80.0493 79.2481Z" fill="#D0FF00"/>
<path d="M80.0224 53.8263L80.0224 47.4305L86.4278 47.4305L86.4278 40.9939L79.9911 40.9939L79.9911 47.3896L73.5858 47.3896L73.5858 53.7709L67.2719 53.7709L67.2719 47.3703L60.8665 47.3703L60.8665 40.9746L54.4299 40.9746L54.4299 47.4113L60.8352 47.4113L60.8352 53.807L67.2021 53.807L67.2021 60.1811L60.7799 60.1811L60.7799 66.5768L54.3745 66.5768L54.3745 73.0134L60.8112 73.0134L60.8112 66.6177L67.2165 66.6177L67.2165 60.2075L73.5304 60.2075L73.5304 66.5985L79.9358 66.5985L79.9358 72.9942L86.3724 72.9942L86.3724 66.5575L79.9646 66.5575L79.9646 60.1618L73.6387 60.1618L73.6387 53.8262L80.0224 53.8263Z" fill="#D0FF00"/>
<path d="M105.644 66.4952L105.644 60.0995L112.052 60.0995L112.052 53.6628L105.616 53.6628L105.616 60.0585L99.2078 60.0585L99.2078 66.4398L92.8964 66.4398L92.8964 60.0417L86.4886 60.0417L86.4886 53.6436L80.0519 53.6436L80.0519 60.0802L86.4597 60.0802L86.4597 66.4759L92.8242 66.4759L92.8241 72.85L86.4043 72.85L86.4043 79.2457L79.9966 79.2457L79.9966 85.6824L86.4332 85.6824L86.4332 79.2867L92.841 79.2867L92.841 72.8765L99.1525 72.8765L99.1525 79.2674L105.56 79.2674L105.56 85.6631L111.997 85.6631L111.997 79.2289L105.589 79.2289L105.589 72.8307L99.2608 72.8307L99.2608 66.4952L105.644 66.4952Z" fill="#D0FF00"/>
<path d="M54.6235 66.525L54.6235 60.1268L61.0288 60.1268L61.0289 53.6902L54.5946 53.6902L54.5946 60.0883L48.1868 60.0883L48.1868 66.4672L41.8754 66.4672L41.8754 60.0691L35.4676 60.0691L35.4676 53.6733L29.0309 53.6733L29.0309 60.1076L35.4387 60.1076L35.4387 66.5057L41.8031 66.5057L41.8031 72.8774L35.3833 72.8774L35.3833 79.2755L28.9756 79.2755L28.9756 85.7122L35.4122 85.7122L35.4122 79.314L41.8176 79.314L41.8176 72.9039L48.1315 72.9039L48.1315 79.2948L54.5392 79.2948L54.5392 85.6929L60.9735 85.6929L60.9735 79.2563L54.5681 79.2563L54.5681 72.8605L48.2398 72.8605L48.2398 66.525L54.6235 66.525Z" fill="#D0FF00"/>
<path d="M88.7177 125.412L89.9885 129.597L89.3169 129.801L88.2172 126.18L86.3104 126.758L86.1393 126.195L88.7177 125.412ZM82.2829 127.124L82.8558 128.192L84.215 127.895L84.2911 126.686L84.9891 126.534L84.6721 131.08L83.7353 131.284L81.5543 127.283L82.2829 127.124ZM84.0437 130.492L84.0926 130.481L84.2106 128.493L83.1085 128.733L84.0437 130.492ZM74.3615 131.993L74.141 128.214L74.8417 128.173L75.0622 131.952L76.4322 131.872L76.4665 132.46L73.0258 132.661L72.9915 132.072L74.3615 131.993ZM71.4291 128.337L71.4232 128.87L70.3956 128.859L70.3594 132.167L71.387 132.179L71.3812 132.711L68.6241 132.681L68.6299 132.148L69.6575 132.16L69.6938 128.851L68.6661 128.84L68.672 128.307L71.4291 128.337ZM66.9486 128.243L66.533 132.597L63.8069 132.337L63.8629 131.751L65.8903 131.944L66.0112 130.678L64.0586 130.491L64.1146 129.905L66.0671 130.091L66.194 128.763L64.1666 128.569L64.2226 127.983L66.9486 128.243ZM61.8539 127.674L62.5403 127.787L61.8327 132.103L60.2187 131.839C59.8064 131.771 59.512 131.604 59.3355 131.338C59.1549 131.071 59.0976 130.736 59.1639 130.332C59.2179 130.002 59.3429 129.743 59.5388 129.555C59.7348 129.367 59.9873 129.273 60.2963 129.273L59.5967 127.304L60.3635 127.43L60.9929 129.324L61.568 129.418L61.8539 127.674ZM60.6481 129.839C60.2194 129.768 59.9729 129.929 59.9087 130.321L59.8651 130.587C59.8009 130.978 59.9832 131.209 60.4119 131.28L61.2406 131.415L61.4768 129.975L60.6481 129.839ZM57.488 126.854L58.1624 127.024L57.0916 131.265L55.5058 130.864C55.1007 130.762 54.8215 130.571 54.6682 130.291C54.5108 130.01 54.4822 129.671 54.5824 129.274C54.6642 128.95 54.8107 128.703 55.0219 128.532C55.233 128.361 55.4926 128.289 55.8005 128.315L55.2703 126.294L56.0237 126.484L56.4903 128.424L57.0553 128.567L57.488 126.854ZM56.1031 128.908C55.6819 128.802 55.4226 128.941 55.3255 129.326L55.2595 129.587C55.1624 129.972 55.3244 130.217 55.7457 130.324L56.5598 130.529L56.9173 129.114L56.1031 128.908ZM51.612 125.161L51.5638 126.372L52.8855 126.806L53.5648 125.802L54.2435 126.025L51.6638 129.782L50.753 129.483L50.9035 124.928L51.612 125.161ZM51.4205 128.957L51.4681 128.972L52.5785 127.319L51.5069 126.967L51.4205 128.957ZM43.7251 120.521L44.4388 120.887C44.6915 121.017 44.8393 121.177 44.8821 121.368C44.9269 121.556 44.894 121.757 44.7833 121.973L44.6746 122.184C44.8544 122.319 44.9901 122.475 45.0817 122.654C45.1732 122.832 45.2244 123.03 45.2352 123.247C45.2404 123.466 45.2061 123.702 45.1325 123.955C45.0588 124.208 44.9486 124.478 44.8017 124.764C44.6395 125.08 44.4667 125.348 44.2832 125.569C44.0977 125.793 43.9035 125.961 43.7005 126.073C43.4939 126.183 43.2784 126.236 43.0542 126.234C42.8244 126.233 42.5869 126.17 42.3416 126.044C42.0962 125.919 41.9082 125.763 41.7775 125.579C41.6412 125.396 41.5592 125.19 41.5318 124.96C41.5006 124.728 41.5219 124.471 41.5959 124.19C41.6679 123.912 41.785 123.615 41.9472 123.299C42.2409 122.727 42.5694 122.316 42.9326 122.065C43.2958 121.815 43.6907 121.759 44.1171 121.898L44.3545 121.436L43.4848 120.989L43.7251 120.521ZM44.1412 122.538C43.8624 122.395 43.612 122.397 43.39 122.547C43.1661 122.699 42.9616 122.956 42.7766 123.316L42.4418 123.969C42.2587 124.326 42.1713 124.638 42.1797 124.905C42.1862 125.176 42.3289 125.383 42.6076 125.526C42.8864 125.669 43.1378 125.664 43.3617 125.511C43.5837 125.362 43.7863 125.109 43.9694 124.753L44.307 124.095C44.4901 123.738 44.5784 123.424 44.572 123.153C44.5635 122.886 44.42 122.681 44.1412 122.538ZM38.8298 124.043L40.2408 121.754C40.3351 121.602 40.417 121.461 40.4867 121.332C40.5527 121.201 40.5918 121.078 40.604 120.962C40.6139 120.851 40.5905 120.746 40.5337 120.647C40.4768 120.548 40.3737 120.452 40.2244 120.36C40.075 120.268 39.9434 120.219 39.8296 120.213C39.7157 120.206 39.6112 120.232 39.5159 120.291C39.4184 120.354 39.3277 120.445 39.2438 120.565C39.1564 120.683 39.0656 120.819 38.9713 120.972L37.5603 123.26L36.9629 122.892L38.3081 120.71C38.4726 120.443 38.6333 120.218 38.7903 120.035C38.9415 119.854 39.1032 119.723 39.2755 119.643C39.4455 119.566 39.6331 119.544 39.8384 119.577C40.04 119.609 40.2707 119.704 40.5303 119.864C40.7898 120.024 40.9806 120.189 41.1025 120.357C41.2209 120.523 41.2839 120.699 41.2917 120.886C41.2973 121.076 41.2547 121.28 41.1639 121.499C41.0674 121.719 40.9369 121.963 40.7724 122.229L39.4272 124.411L38.8298 124.043ZM37.8718 118.264L35.2925 121.797L33.0808 120.182L33.4282 119.706L35.073 120.907L35.8232 119.879L34.2391 118.723L34.5864 118.247L36.1705 119.404L36.9576 118.326L35.3128 117.125L35.6601 116.649L37.8718 118.264ZM28.123 112.6L29.15 113.629L30.5116 112.27L31.0075 112.767L27.9116 115.857L27.4158 115.36L28.7331 114.045L27.706 113.016L26.3888 114.331L25.893 113.834L28.9888 110.744L29.4846 111.241L28.123 112.6ZM26.2925 107.749L25.6279 108.763L26.5376 109.815L27.6366 109.304L28.1038 109.845L23.9586 111.738L23.3316 111.013L25.8048 107.185L26.2925 107.749ZM24.1747 110.905L24.2075 110.943L26.0106 110.097L25.273 109.243L24.1747 110.905ZM21.4482 108.751L20.5528 107.535C20.3175 107.215 20.2179 106.907 20.2539 106.611C20.2875 106.311 20.4473 106.056 20.7333 105.846C20.9385 105.695 21.1388 105.625 21.3342 105.637C21.5296 105.648 21.7157 105.721 21.8925 105.856L21.9178 105.837C21.8138 105.597 21.7832 105.366 21.8262 105.142C21.8657 104.921 22.0066 104.721 22.2489 104.543C22.3935 104.437 22.5438 104.362 22.6996 104.32C22.8553 104.278 23.0109 104.267 23.1661 104.288C23.318 104.311 23.4649 104.366 23.607 104.454C23.7433 104.54 23.8659 104.657 23.9749 104.805L24.9706 106.158L21.4482 108.751ZM23.6672 105.296C23.5285 105.108 23.3833 104.992 23.2317 104.948C23.08 104.904 22.9183 104.945 22.7468 105.071L22.5651 105.205C22.3935 105.331 22.3062 105.474 22.3031 105.631C22.3 105.789 22.3678 105.962 22.5065 106.151L22.9672 106.777L24.1279 105.922L23.6672 105.296ZM22.1522 106.536C22.0209 106.358 21.8882 106.248 21.754 106.207C21.614 106.165 21.4633 106.203 21.3018 106.322L21.1201 106.456C20.9586 106.575 20.8789 106.706 20.881 106.85C20.8772 106.992 20.941 107.153 21.0722 107.331L21.4735 107.876L22.5534 107.081L22.1522 106.536ZM22.3781 102.571L21.9261 102.853L21.3824 101.981L18.5747 103.731L19.1184 104.604L18.6664 104.885L17.2077 102.546L17.6597 102.264L18.2034 103.136L21.0111 101.385L20.4674 100.513L20.9194 100.231L22.3781 102.571ZM15.9032 99.016L19.2515 97.2512L19.5788 97.8721L16.2304 99.6369L16.8703 100.851L16.3492 101.126L14.7422 98.0766L15.2633 97.8019L15.9032 99.016ZM17.0873 92.6272L16.1443 93.3885L16.688 94.669L17.8907 94.5191L18.1699 95.1767L13.6442 95.7097L13.2694 94.8272L16.7958 91.9408L17.0873 92.6272ZM14.1049 94.983L14.1245 95.0292L16.1002 94.7757L15.6593 93.7375L14.1049 94.983ZM13.5982 89.2394L12.347 89.6476L12.3633 89.6951L14.7758 89.7968L12.9313 91.3552L12.9475 91.4026L14.1865 90.9588L16.1668 90.2812L16.3677 90.8682L12.2292 92.2842L11.9513 91.472L13.3766 90.2756L13.3624 90.2341L11.5009 90.1557L11.2392 89.3909L15.3777 87.9748L15.5785 88.5618L13.5982 89.2394ZM14.6513 85.1542C14.7193 85.4214 14.73 85.6666 14.6834 85.8897C14.6316 86.1098 14.5291 86.3083 14.3759 86.4853C14.2216 86.6582 14.0166 86.8096 13.7608 86.9393C13.505 87.0691 13.203 87.1784 12.8548 87.267C12.5107 87.3546 12.1953 87.4026 11.9086 87.4109C11.6178 87.4203 11.3634 87.3859 11.1452 87.3078C10.926 87.2257 10.743 87.0998 10.5964 86.9302C10.4447 86.7576 10.3348 86.5377 10.2668 86.2705C10.1987 86.0033 10.1906 85.7597 10.2423 85.5396C10.289 85.3165 10.3894 85.1184 10.5437 84.9455C10.697 84.7686 10.9035 84.6147 11.1633 84.4838C11.4191 84.3541 11.7191 84.2454 12.0632 84.1577C12.4114 84.0691 12.7288 84.0206 13.0155 84.0123C13.3023 84.0039 13.5552 84.0408 13.7744 84.123C13.9926 84.2011 14.1776 84.3264 14.3293 84.499C14.4759 84.6686 14.5833 84.887 14.6513 85.1542ZM14.0865 85.298C14.0092 84.9944 13.8412 84.8087 13.5826 84.7409C13.3198 84.6741 12.9921 84.6907 12.5994 84.7907L11.8889 84.9716C11.5003 85.0706 11.2085 85.2117 11.0138 85.3949C10.815 85.5791 10.7542 85.8231 10.8315 86.1267C10.9088 86.4304 11.0788 86.6156 11.3416 86.6823C11.6002 86.7501 11.9239 86.7345 12.3126 86.6356L13.0291 86.4531C13.4178 86.3542 13.7115 86.2126 13.9104 86.0283C14.1051 85.8451 14.1638 85.6016 14.0865 85.298ZM13.7023 80.8588C13.7678 81.2333 13.757 81.5596 13.6699 81.8378C13.5828 82.116 13.4445 82.3564 13.2552 82.5592L12.7516 82.1891C12.9204 81.99 13.0359 81.7896 13.0982 81.5878C13.1563 81.3868 13.1649 81.169 13.1239 80.9345C13.0764 80.6629 12.9784 80.4658 12.8298 80.3434C12.6804 80.2168 12.4905 80.1736 12.26 80.2139C12.0749 80.2463 11.9422 80.3246 11.8622 80.4489C11.778 80.5739 11.7359 80.7699 11.736 81.0371L11.7439 81.5192C11.7469 81.7307 11.7236 81.9129 11.674 82.0658C11.6203 82.2194 11.5495 82.3484 11.4618 82.4528C11.3699 82.5579 11.2637 82.6422 11.1433 82.7056C11.0181 82.7657 10.8835 82.8083 10.7395 82.8335C10.3321 82.9047 10.0004 82.8269 9.74447 82.6002C9.48444 82.3743 9.31415 82.0308 9.23359 81.5699C9.17389 81.2283 9.17873 80.9285 9.24813 80.6704C9.31269 80.4089 9.43079 80.1868 9.60243 80.0041L10.1101 80.3607C9.98688 80.5052 9.89647 80.6673 9.83882 80.847C9.77634 81.0234 9.76595 81.2309 9.80767 81.4696C9.85227 81.7247 9.94199 81.9105 10.0768 82.0269C10.2069 82.1398 10.3768 82.178 10.5867 82.1413C10.7636 82.1104 10.8946 82.0345 10.9795 81.9136C11.0595 81.7894 11.0988 81.5895 11.0973 81.3141L11.0977 80.8433C11.1001 80.4442 11.1928 80.1375 11.3759 79.9232C11.5548 79.7095 11.7966 79.5761 12.1011 79.5229C12.2986 79.4883 12.4858 79.4917 12.6626 79.5329C12.8388 79.5699 12.9963 79.6463 13.1353 79.762C13.2735 79.8735 13.3928 80.0223 13.4932 80.2083C13.5887 80.391 13.6584 80.6078 13.7023 80.8588ZM13.6585 59.9335L9.38309 59.0099L9.53129 58.3238L13.2309 59.1231L13.6517 57.1753L14.2275 57.2996L13.6585 59.9335ZM15.2721 53.4729L14.0602 53.4623L13.6672 54.7968L14.6914 55.4446L14.4896 56.1299L10.6549 53.6679L10.9258 52.7482L15.4828 52.7576L15.2721 53.4729ZM11.4723 53.3991L11.4581 53.4472L13.1453 54.5059L13.464 53.4238L11.4723 53.3991ZM14.8134 44.1879L18.2327 45.8111L17.9317 46.4451L14.5125 44.8219L13.9239 46.0617L13.3918 45.8091L14.8698 42.6955L15.402 42.9481L14.8134 44.1879ZM19.4315 43.3759L18.9694 43.111L19.4804 42.2194L16.6097 40.5741L16.0987 41.4658L15.6366 41.2009L17.0076 38.8087L17.4698 39.0735L16.9587 39.9652L19.8294 41.6104L20.3404 40.7188L20.8026 40.9836L19.4315 43.3759ZM21.6938 39.5075L18.0673 37.062L19.5984 34.7915L20.0868 35.1209L18.9481 36.8094L20.0028 37.5207L21.0994 35.8945L21.5878 36.2238L20.4912 37.85L21.5978 38.5963L22.7365 36.9077L23.2249 37.2371L21.6938 39.5075ZM24.6388 35.313L24.2055 35.8572L20.7835 33.1329L21.8022 31.8533C22.0624 31.5265 22.3517 31.3509 22.6701 31.3267C22.991 31.2992 23.3116 31.4129 23.6319 31.6679C23.8934 31.8761 24.0584 32.1115 24.1268 32.3743C24.1953 32.6371 24.1542 32.9034 24.0035 33.1732L26.0634 33.5236L25.5794 34.1315L23.6192 33.7564L23.2563 34.2124L24.6388 35.313ZM23.338 33.2041C23.6086 32.8642 23.5887 32.5707 23.2782 32.3235L23.0674 32.1556C22.7569 31.9085 22.4663 31.9548 22.1957 32.2947L21.6727 32.9517L22.815 33.8611L23.338 33.2041ZM27.481 31.8991L27.0058 32.4071L23.8115 29.4191L24.9288 28.2246C25.2142 27.9195 25.5165 27.7676 25.8358 27.7687C26.1579 27.7669 26.4684 27.9058 26.7674 28.1854C27.0115 28.4138 27.1572 28.6616 27.2046 28.929C27.2519 29.1964 27.1897 29.4586 27.018 29.7155L29.0435 30.2288L28.5127 30.7962L26.5886 30.2663L26.1904 30.6919L27.481 31.8991ZM26.3522 29.6934C26.649 29.3761 26.6525 29.0819 26.3627 28.8108L26.1659 28.6267C25.876 28.3556 25.5827 28.3787 25.2859 28.696L24.7123 29.3092L25.7786 30.3066L26.3522 29.6934ZM31.8074 27.5787L30.7719 26.9489L29.751 27.894L30.299 28.9749L29.7748 29.4602L27.7417 25.3819L28.4453 24.7306L32.3547 27.0722L31.8074 27.5787ZM28.5814 25.5695L28.5446 25.6036L29.4517 27.3769L30.2795 26.6106L28.5814 25.5695ZM39.6753 22.9168L39.0083 23.3623C38.7721 23.5201 38.5601 23.5713 38.3723 23.5159C38.1869 23.4639 38.0269 23.3372 37.8923 23.1357L37.76 22.9377C37.555 23.0295 37.3523 23.072 37.1518 23.0652C36.9514 23.0584 36.7538 23.0071 36.559 22.9111C36.3654 22.8093 36.1758 22.6647 35.9903 22.4771C35.8047 22.2896 35.6225 22.0621 35.4438 21.7946C35.2466 21.4994 35.0963 21.218 34.9929 20.9504C34.8872 20.6794 34.8348 20.428 34.8357 20.1962C34.8401 19.9622 34.8979 19.7478 35.0089 19.553C35.1211 19.3525 35.2918 19.1756 35.5211 19.0224C35.7504 18.8692 35.9774 18.7804 36.2021 18.7558C36.4281 18.7255 36.6482 18.7542 36.8627 18.8421C37.0806 18.9276 37.2945 19.0711 37.5044 19.2725C37.712 19.4704 37.9144 19.717 38.1117 20.0123C38.4691 20.5473 38.6689 21.0343 38.711 21.4734C38.7532 21.9125 38.6098 22.2846 38.2811 22.5896L38.57 23.0221L39.3829 22.4791L39.6753 22.9168ZM37.7107 22.2999C37.9713 22.1259 38.0904 21.9056 38.0681 21.6391C38.0435 21.3692 37.9187 21.0657 37.6935 20.7288L37.2863 20.1191C37.0635 19.7856 36.8332 19.5576 36.5956 19.435C36.3556 19.309 36.1054 19.333 35.8448 19.507C35.5843 19.6811 35.4663 19.9031 35.4909 20.173C35.5132 20.4395 35.6357 20.7395 35.8585 21.073L36.2693 21.6878C36.4921 22.0213 36.7235 22.2511 36.9634 22.3771C37.2011 22.4997 37.4502 22.474 37.7107 22.2999ZM38.9381 16.9372L40.2731 19.2706C40.3623 19.4265 40.4468 19.5659 40.5267 19.6887C40.6102 19.8094 40.6996 19.9026 40.795 19.9683C40.8883 20.0305 40.9919 20.0602 41.1059 20.0576C41.2199 20.0549 41.3531 20.01 41.5054 19.9229C41.6577 19.8358 41.7639 19.7438 41.8239 19.6468C41.884 19.5499 41.9109 19.4455 41.9046 19.3335C41.8963 19.218 41.8594 19.0947 41.794 18.9636C41.7323 18.8305 41.6569 18.6859 41.5676 18.53L40.2327 16.1966L40.8419 15.848L42.1146 18.0727C42.2702 18.3447 42.3908 18.5933 42.4764 18.8187C42.5636 19.0384 42.6012 19.243 42.5894 19.4327C42.5755 19.6187 42.5049 19.7939 42.3775 19.9582C42.2537 20.1205 42.0595 20.2773 41.7948 20.4288C41.5301 20.5802 41.2946 20.6692 41.0884 20.6957C40.8858 20.7202 40.7008 20.6913 40.5334 20.6089C40.3639 20.523 40.2047 20.3878 40.0559 20.2034C39.9087 20.0133 39.7572 19.7823 39.6017 19.5104L38.3289 17.2857L38.9381 16.9372ZM44.4718 18.8609L42.6139 14.901L45.0931 13.7378L45.3433 14.2711L43.4995 15.1362L44.0398 16.2878L45.8155 15.4547L46.0657 15.988L44.29 16.8211L44.857 18.0295L46.7008 17.1644L46.951 17.6977L44.4718 18.8609ZM54.1282 13.05L52.7328 13.4581L53.2729 15.3046L52.5992 15.5016L51.3713 11.3035L52.045 11.1065L52.5674 12.8928L53.9628 12.4847L53.4403 10.6983L54.114 10.5013L55.3419 14.6995L54.6682 14.8965L54.1282 13.05ZM59.2661 13.7847L58.7013 12.7124L57.3398 12.9986L57.2546 14.2076L56.5555 14.3546L56.9066 9.81109L57.8449 9.61383L59.9958 13.6313L59.2661 13.7847ZM57.5306 10.4035L57.4816 10.4138L57.3487 12.4012L58.4526 12.1691L57.5306 10.4035ZM60.7322 9.06117L62.2297 8.86548C62.6232 8.81406 62.941 8.87576 63.1829 9.05059C63.429 9.22488 63.575 9.48808 63.621 9.84019C63.654 10.0929 63.6182 10.3019 63.5134 10.4673C63.4086 10.6326 63.2546 10.7602 63.0515 10.8499L63.0555 10.881C63.3158 10.906 63.5334 10.9913 63.7083 11.137C63.8827 11.2785 63.9894 11.4984 64.0284 11.7967C64.0516 11.9748 64.044 12.1422 64.0055 12.2989C63.967 12.4556 63.9012 12.5969 63.8081 12.7228C63.7145 12.8446 63.5951 12.9466 63.45 13.0288C63.3084 13.1062 63.1465 13.1569 62.9642 13.1807L61.299 13.3983L60.7322 9.06117ZM62.6831 12.6739C62.9151 12.6436 63.087 12.5727 63.1988 12.4612C63.3107 12.3497 63.3528 12.1883 63.3252 11.977L63.2959 11.7533C63.2683 11.5421 63.1862 11.3969 63.0494 11.3179C62.9127 11.2388 62.7284 11.2145 62.4964 11.2448L61.7259 11.3455L61.9126 12.7746L62.6831 12.6739ZM62.3304 10.7483C62.5499 10.7196 62.7102 10.6565 62.8112 10.559C62.9159 10.4569 62.9552 10.3064 62.9292 10.1076L62.9 9.88386C62.874 9.68502 62.7976 9.55176 62.6708 9.48406C62.5475 9.41169 62.3762 9.38984 62.1566 9.41853L61.4855 9.50623L61.6593 10.836L62.3304 10.7483ZM65.6919 12.8631L65.6637 12.3312L66.69 12.2768L66.5148 8.97275L65.4885 9.02716L65.4603 8.49525L68.2137 8.34928L68.2419 8.88118L67.2157 8.93559L67.3908 12.2397L68.4171 12.1853L68.4453 12.7172L65.6919 12.8631ZM71.9519 8.924L71.861 12.7079L71.1593 12.691L71.2502 8.90715L69.8782 8.8742L69.8924 8.28532L73.338 8.36806L73.3238 8.95695L71.9519 8.924ZM76.955 13.0602L76.745 11.8665L75.3613 11.7228L74.9106 12.8478L74.2 12.774L75.9234 8.55546L76.8771 8.65452L77.6967 13.1372L76.955 13.0602ZM76.3364 9.31029L76.2866 9.30511L75.5524 11.1567L76.6744 11.2733L76.3364 9.31029ZM81.607 11.6438L81.8542 10.3511L81.8048 10.3424L80.5499 12.4054L80.0769 10.0375L80.0275 10.0288L79.8173 11.328L79.4536 13.3891L78.8427 13.2813L79.6028 8.97386L80.4482 9.12305L80.8069 10.949L80.8501 10.9566L81.8182 9.36481L82.6143 9.50529L81.8542 13.8128L81.2432 13.705L81.607 11.6438ZM84.6754 14.5369C84.4085 14.4678 84.1885 14.359 84.0155 14.2106C83.8476 14.0593 83.723 13.8738 83.6417 13.6542C83.5645 13.4357 83.5307 13.1831 83.5402 12.8965C83.5497 12.6098 83.5995 12.2925 83.6896 11.9447C83.7786 11.601 83.8885 11.3015 84.0194 11.0462C84.1513 10.7869 84.304 10.5805 84.4775 10.4269C84.6551 10.2744 84.8535 10.1747 85.0728 10.1279C85.2972 10.0782 85.5428 10.0878 85.8097 10.157C86.0766 10.2261 86.2941 10.3363 86.462 10.4877C86.635 10.6361 86.7602 10.8195 86.8373 11.038C86.9186 11.2576 86.9539 11.5127 86.9434 11.8034C86.9339 12.0901 86.8846 12.4053 86.7956 12.7491C86.7055 13.0969 86.595 13.3984 86.4642 13.6537C86.3334 13.909 86.1792 14.1128 86.0016 14.2654C85.828 14.4189 85.6291 14.5206 85.4047 14.5704C85.1854 14.6172 84.9424 14.606 84.6754 14.5369ZM84.8215 13.9727C85.1249 14.0513 85.3685 13.9935 85.5526 13.7995C85.7376 13.6015 85.881 13.3063 85.9826 12.914L86.1664 12.2042C86.2669 11.816 86.2838 11.4924 86.2171 11.2334C86.1514 10.9705 85.9669 10.7997 85.6636 10.7211C85.3603 10.6426 85.1161 10.7023 84.931 10.9004C84.747 11.0944 84.6047 11.3855 84.5042 11.7738L84.3188 12.4896C84.2182 12.8779 84.2008 13.2035 84.2665 13.4665C84.3332 13.7254 84.5182 13.8942 84.8215 13.9727ZM88.8967 15.7745C88.537 15.6515 88.2562 15.4848 88.0544 15.2745C87.8526 15.0642 87.7084 14.8273 87.6219 14.5637L88.1887 14.3006C88.282 14.5444 88.402 14.7421 88.5488 14.8939C88.6969 15.0417 88.8837 15.1541 89.109 15.2311C89.3699 15.3203 89.5898 15.3293 89.7687 15.258C89.9516 15.1881 90.0808 15.0424 90.1565 14.8211C90.2173 14.6432 90.2126 14.4892 90.1422 14.3592C90.0733 14.2252 89.9217 14.0939 89.6875 13.9653L89.2612 13.7401C89.0744 13.6409 88.9259 13.5327 88.8158 13.4156C88.7071 13.2945 88.6281 13.1704 88.5789 13.0432C88.531 12.912 88.5083 12.7784 88.5107 12.6424C88.5183 12.5037 88.5458 12.3652 88.5931 12.2269C88.7269 11.8355 88.9548 11.5823 89.2767 11.4672C89.6 11.3481 89.983 11.3643 90.4257 11.5157C90.7538 11.6279 91.0143 11.7765 91.2071 11.9616C91.4051 12.1442 91.5429 12.3546 91.6203 12.593L91.0634 12.8662C90.996 12.6886 90.8975 12.5313 90.7678 12.3942C90.6433 12.2545 90.4665 12.1455 90.2372 12.0671C89.9921 11.9833 89.7861 11.9725 89.6192 12.0346C89.4575 12.0941 89.3422 12.2247 89.2733 12.4263C89.2152 12.5963 89.2186 12.7476 89.2837 12.8802C89.354 13.0102 89.5102 13.1409 89.7523 13.2722L90.1647 13.4993C90.5133 13.6936 90.7375 13.9225 90.8372 14.1862C90.9382 14.4459 90.9387 14.7221 90.8387 15.0146C90.7738 15.2043 90.6808 15.3668 90.5595 15.5019C90.4422 15.6384 90.2994 15.7397 90.1311 15.8058C89.9668 15.8732 89.7789 15.9061 89.5675 15.9045C89.3615 15.9002 89.1379 15.8569 88.8967 15.7745ZM107.238 25.8406L110.103 22.5353L110.633 22.995L108.154 25.8552L109.66 27.1604L109.274 27.6055L107.238 25.8406ZM112.118 30.3708L112.715 29.3161L111.738 28.3252L110.675 28.9068L110.174 28.3979L114.187 26.2384L114.86 26.9213L112.641 30.902L112.118 30.3708ZM114.025 27.0836L113.99 27.0479L112.246 28.0099L113.038 28.8133L114.025 27.0836ZM120.447 34.4489L117.386 36.6753L116.973 36.1077L120.034 33.8813L119.227 32.7715L119.703 32.425L121.731 35.2123L121.254 35.5587L120.447 34.4489ZM118.949 38.8948L119.404 38.6182L119.938 39.4965L122.766 37.7785L122.232 36.9002L122.687 36.6236L124.119 38.9801L123.664 39.2567L123.13 38.3783L120.302 40.0963L120.836 40.9746L120.381 41.2512L118.949 38.8948ZM121.243 42.745L125.135 40.7479L126.385 43.1843L125.861 43.4533L124.931 41.6413L123.799 42.2221L124.695 43.9672L124.171 44.2361L123.275 42.4911L122.088 43.1005L123.017 44.9125L122.493 45.1814L121.243 42.745ZM123.497 47.3481L123.229 46.7061L127.266 45.0228L127.896 46.5324C128.056 46.918 128.071 47.2561 127.938 47.5466C127.808 47.841 127.553 48.067 127.175 48.2245C126.867 48.3531 126.581 48.3841 126.318 48.3173C126.055 48.2505 125.841 48.086 125.678 47.8238L124.377 49.4592L124.078 48.742L125.352 47.2059L125.128 46.668L123.497 47.3481ZM125.972 47.226C126.139 47.627 126.405 47.7512 126.772 47.5984L127.021 47.4947C127.387 47.342 127.486 47.0651 127.319 46.6641L126.996 45.8891L125.648 46.451L125.972 47.226ZM125.119 51.4841L124.902 50.8234L129.057 49.4563L129.568 51.0099C129.698 51.4067 129.687 51.7449 129.532 52.0244C129.379 52.3078 129.108 52.5135 128.719 52.6415C128.402 52.7459 128.115 52.7547 127.857 52.6679C127.6 52.581 127.4 52.4005 127.257 52.1265L125.834 53.6568L125.591 52.9187L126.98 51.4854L126.798 50.9318L125.119 51.4841ZM127.596 51.5531C127.732 51.9659 127.988 52.1102 128.365 51.9861L128.621 51.9019C128.998 51.7779 129.119 51.5095 128.983 51.0968L128.721 50.2991L127.334 50.7555L127.596 51.5531ZM126.824 57.3553L127.875 56.7521L127.54 55.402L126.329 55.3605L126.157 54.6671L130.71 54.8539L130.941 55.7844L127.004 58.0791L126.824 57.3553ZM130.14 55.4989L130.128 55.4502L128.137 55.3892L128.409 56.484L130.14 55.4989ZM127.104 66.5044L127.032 65.7056C127.006 65.4227 127.063 65.212 127.201 65.0736C127.336 64.9356 127.523 64.8557 127.765 64.8338L128.002 64.8123C128.019 64.5884 128.079 64.3901 128.181 64.2173C128.283 64.0444 128.422 63.8955 128.6 63.7703C128.782 63.649 128.999 63.5516 129.253 63.4784C129.506 63.4051 129.793 63.3539 130.113 63.3249C130.467 63.2929 130.786 63.2954 131.071 63.3326C131.359 63.3694 131.605 63.4436 131.808 63.5552C132.011 63.671 132.172 63.8243 132.29 64.0149C132.413 64.2094 132.486 64.4439 132.511 64.7185C132.536 64.9931 132.505 65.235 132.42 65.4441C132.338 65.657 132.208 65.8366 132.028 65.983C131.849 66.1334 131.62 66.2527 131.343 66.3407C131.07 66.4284 130.756 66.4882 130.403 66.5203C129.762 66.5783 129.239 66.5208 128.833 66.3478C128.427 66.1749 128.169 65.8711 128.058 65.4364L127.54 65.4834L127.629 66.4569L127.104 66.5044ZM128.586 65.0741C128.614 65.3861 128.75 65.5961 128.995 65.704C129.244 65.8115 129.57 65.8469 129.974 65.8104L130.704 65.7442C131.103 65.7081 131.414 65.6149 131.635 65.4648C131.86 65.3144 131.959 65.0831 131.931 64.7711C131.902 64.459 131.764 64.2493 131.515 64.1418C131.27 64.0339 130.948 63.998 130.549 64.0342L129.812 64.1009C129.413 64.1371 129.101 64.2304 128.875 64.3809C128.654 64.531 128.557 64.762 128.586 65.0741ZM132.691 68.7861L130.003 68.8003C129.823 68.8012 129.661 68.8063 129.514 68.8154C129.368 68.8287 129.243 68.8607 129.139 68.9114C129.039 68.962 128.962 69.0376 128.908 69.1382C128.854 69.2387 128.828 69.3767 128.829 69.5522C128.83 69.7277 128.858 69.8654 128.913 69.9654C128.967 70.0653 129.045 70.1401 129.146 70.1897C129.25 70.2393 129.376 70.2679 129.522 70.2755C129.668 70.2872 129.831 70.2926 130.011 70.2917L132.699 70.2775L132.703 70.9793L130.14 70.9929C129.827 70.9945 129.551 70.9772 129.313 70.9408C129.078 70.9087 128.882 70.8408 128.722 70.7372C128.567 70.6335 128.45 70.4858 128.369 70.2941C128.289 70.1065 128.248 69.8602 128.246 69.5553C128.245 69.2503 128.283 69.0015 128.361 68.8089C128.44 68.6205 128.556 68.4737 128.71 68.3684C128.868 68.2632 129.064 68.1911 129.298 68.1523C129.536 68.1176 129.811 68.0994 130.125 68.0978L132.688 68.0842L132.691 68.7861ZM128.301 72.6582L132.666 72.9337L132.494 75.6667L131.906 75.6296L132.034 73.597L130.765 73.5169L130.641 75.4745L130.053 75.4374L130.177 73.4798L128.845 73.3958L128.716 75.4284L128.129 75.3913L128.301 72.6582ZM128.73 83.9125L129.04 82.4922L127.161 82.0815L127.311 81.3958L131.584 82.3296L131.434 83.0153L129.616 82.618L129.305 84.0383L131.123 84.4356L130.974 85.1213L126.7 84.1874L126.85 83.5018L128.73 83.9125ZM125.605 88.0644L126.816 88.0905L127.226 86.7611L126.21 86.1003L126.421 85.4176L130.224 87.928L129.942 88.8442L125.385 88.777L125.605 88.0644ZM129.403 88.1865L129.418 88.1385L127.744 87.0585L127.412 88.1364L129.403 88.1865ZM129.036 91.6164L128.488 93.0239C128.344 93.3938 128.138 93.6429 127.868 93.7711C127.597 93.9033 127.296 93.905 126.965 93.7762C126.728 93.6838 126.562 93.552 126.467 93.3806C126.372 93.2093 126.334 93.013 126.353 92.7917L126.324 92.7804C126.177 92.9967 125.998 93.1466 125.786 93.23C125.578 93.315 125.334 93.303 125.054 93.1939C124.886 93.1288 124.743 93.0417 124.624 92.9327C124.505 92.8237 124.413 92.6981 124.347 92.556C124.285 92.4154 124.253 92.2617 124.251 92.0949C124.251 91.9335 124.284 91.7672 124.351 91.5959L124.959 90.0307L129.036 91.6164ZM124.93 91.5927C124.845 91.8107 124.825 91.9956 124.869 92.1472C124.913 92.2988 125.034 92.4133 125.233 92.4905L125.443 92.5723C125.642 92.6495 125.809 92.6472 125.944 92.5652C126.079 92.4832 126.188 92.3332 126.273 92.1152L126.555 91.391L125.212 90.8685L124.93 91.5927ZM126.789 92.2081C126.708 92.4144 126.687 92.5853 126.724 92.7207C126.763 92.8615 126.876 92.9683 127.063 93.041L127.273 93.1228C127.46 93.1955 127.614 93.1925 127.734 93.1137C127.857 93.0404 127.958 92.9006 128.038 92.6942L128.284 92.0635L127.034 91.5773L126.789 92.2081ZM123.318 94.1395L123.797 94.3722L123.348 95.2967L126.324 96.7417L126.773 95.8172L127.252 96.0498L126.048 98.5302L125.569 98.2976L126.018 97.3731L123.041 95.928L122.593 96.8526L122.113 96.6199L123.318 94.1395ZM123.741 101.521L120.471 99.6149L120.825 99.0086L124.095 100.915L124.786 99.7291L125.295 100.026L123.559 103.003L123.05 102.707L123.741 101.521ZM117.713 103.911L118.861 104.299L119.651 103.154L118.88 102.219L119.285 101.631L122.161 105.166L121.617 105.955L117.29 104.525L117.713 103.911ZM121.3 105.167L121.329 105.125L120.056 103.593L119.416 104.522L121.3 105.167ZM116.693 108.671L117.701 109.518L117.733 109.479L116.544 107.377L118.842 108.119L118.873 108.08L117.841 107.263L116.219 105.94L116.611 105.459L120.001 108.223L119.459 108.889L117.69 108.312L117.662 108.346L118.58 109.967L118.069 110.594L114.679 107.83L115.071 107.349L116.693 108.671ZM112.68 109.949C112.869 109.748 113.07 109.608 113.284 109.528C113.497 109.454 113.72 109.434 113.951 109.468C114.18 109.506 114.418 109.598 114.664 109.744C114.911 109.89 115.165 110.087 115.427 110.333C115.685 110.577 115.895 110.817 116.055 111.055C116.219 111.295 116.326 111.529 116.377 111.755C116.426 111.984 116.417 112.206 116.353 112.42C116.288 112.641 116.162 112.852 115.973 113.052C115.783 113.253 115.582 113.39 115.369 113.465C115.155 113.545 114.934 113.566 114.706 113.529C114.474 113.494 114.233 113.402 113.984 113.253C113.737 113.107 113.484 112.912 113.226 112.668C112.965 112.422 112.753 112.18 112.593 111.942C112.432 111.705 112.328 111.471 112.279 111.242C112.228 111.016 112.235 110.793 112.3 110.572C112.364 110.357 112.491 110.15 112.68 109.949ZM113.104 110.349C112.889 110.577 112.823 110.818 112.904 111.073C112.988 111.331 113.178 111.598 113.473 111.876L114.007 112.379C114.298 112.654 114.574 112.825 114.833 112.891C115.095 112.96 115.334 112.881 115.548 112.653C115.763 112.425 115.829 112.182 115.744 111.924C115.663 111.67 115.476 111.405 115.184 111.13L114.646 110.622C114.354 110.347 114.077 110.175 113.815 110.106C113.556 110.04 113.319 110.121 113.104 110.349ZM109.562 113.052C109.843 112.796 110.125 112.631 110.406 112.555C110.688 112.48 110.965 112.467 111.237 112.519L111.195 113.142C110.936 113.106 110.705 113.116 110.501 113.172C110.301 113.23 110.112 113.34 109.936 113.5C109.732 113.686 109.618 113.874 109.595 114.065C109.568 114.259 109.633 114.442 109.79 114.615C109.917 114.754 110.054 114.824 110.202 114.826C110.353 114.83 110.541 114.76 110.766 114.617L111.169 114.352C111.346 114.236 111.512 114.158 111.668 114.118C111.827 114.081 111.973 114.072 112.109 114.09C112.247 114.111 112.375 114.156 112.493 114.223C112.61 114.297 112.719 114.388 112.817 114.496C113.095 114.802 113.207 115.123 113.153 115.461C113.102 115.802 112.903 116.129 112.557 116.444C112.3 116.678 112.045 116.834 111.79 116.914C111.534 117 111.283 117.019 111.037 116.972L111.066 116.352C111.254 116.379 111.44 116.368 111.622 116.321C111.805 116.279 111.985 116.176 112.165 116.013C112.356 115.839 112.465 115.664 112.491 115.488C112.517 115.317 112.458 115.153 112.314 114.996C112.194 114.863 112.059 114.793 111.912 114.786C111.764 114.785 111.574 114.859 111.342 115.008L110.945 115.26C110.606 115.471 110.298 115.558 110.019 115.518C109.742 115.481 109.5 115.349 109.292 115.12C109.157 114.972 109.06 114.812 109 114.64C108.937 114.472 108.917 114.298 108.94 114.119C108.96 113.942 109.022 113.762 109.125 113.577C109.228 113.399 109.374 113.224 109.562 113.052Z" fill="#D0FF00"/>
<circle cx="11.2359" cy="73.0205" r="1.25834" fill="#C8F01A"/>
<circle cx="101.939" cy="124.601" r="1.25834" fill="#D0FF00"/>
<circle cx="100.692" cy="21.1914" r="1.25834" fill="#D0FF00"/>
</svg>
