<svg width="81" height="24" viewBox="0 0 81 24" fill="none" xmlns="http://www.w3.org/2000/svg">
<path d="M14.2051 14.52V9.77167H9.45677V14.52H14.2051Z" fill="#A9AAA9"/>
<path d="M18.917 9.73189V4.98358H14.1687V9.73189H18.917Z" fill="#A9AAA9"/>
<path d="M23.6685 4.98024V0.231934L18.9201 0.231934V4.98024H23.6685Z" fill="#A9AAA9"/>
<path d="M14.1653 19.2451H18.9136V14.4967H14.1653V19.2451Z" fill="#A9AAA9"/>
<path d="M18.9172 23.9967H23.6655V19.2484H18.9172V23.9967Z" fill="#A9AAA9"/>
<path d="M4.75146 14.5001V19.2484H9.49977V14.5001H4.75146Z" fill="#A9AAA9"/>
<path d="M0 19.2517L0 24H4.74831V19.2517H0Z" fill="#A9AAA9"/>
<path d="M9.50319 4.99017H4.75488V9.73848H9.50319V4.99017Z" fill="#A9AAA9"/>
<path d="M4.75173 0.238586H0.00341797V4.9869H4.75173V0.238586Z" fill="#A9AAA9"/>
<path d="M33.2051 14.4206V9.67224H28.4568V14.4206H33.2051Z" fill="#A9AAA9"/>
<path d="M37.917 9.62917V4.88086H33.1687V9.62917H37.917Z" fill="#A9AAA9"/>
<path d="M42.6685 4.87752V0.129211L37.9201 0.129211V4.87752H42.6685Z" fill="#A9AAA9"/>
<path d="M33.1618 19.1423H37.9102V14.394H33.1618V19.1423Z" fill="#A9AAA9"/>
<path d="M37.9138 23.894H42.6621V19.1457H37.9138V23.894Z" fill="#A9AAA9"/>
<path d="M23.748 14.3974V19.1457H28.4964V14.3974H23.748Z" fill="#A9AAA9"/>
<path d="M28.5032 4.88745H23.7549V9.63576H28.5032V4.88745Z" fill="#A9AAA9"/>
<path d="M52.2681 14.3941V9.64575H47.5198V14.3941H52.2681Z" fill="#A9AAA9"/>
<path d="M56.9766 9.60268V4.85437H52.2283V9.60268H56.9766Z" fill="#A9AAA9"/>
<path d="M61.728 4.84773V0.0994263L56.9797 0.0994263V4.84773H61.728Z" fill="#A9AAA9"/>
<path d="M52.2248 19.1158H56.9731V14.3675H52.2248V19.1158Z" fill="#A9AAA9"/>
<path d="M56.9763 23.8641H61.7246V19.1158H56.9763V23.8641Z" fill="#A9AAA9"/>
<path d="M42.811 14.3708V19.1191H47.5593V14.3708H42.811Z" fill="#A9AAA9"/>
<path d="M47.5657 4.86096H42.8174V9.60927H47.5657V4.86096Z" fill="#A9AAA9"/>
<path d="M71.2642 14.2913V9.54303H66.5159V14.2913H71.2642Z" fill="#A9AAA9"/>
<path d="M75.9761 9.49995V4.75165H71.2278V9.49995H75.9761Z" fill="#A9AAA9"/>
<path d="M80.728 4.74831V0L75.9797 0V4.74831H80.728Z" fill="#A9AAA9"/>
<path d="M71.2248 19.0131H75.9731V14.2648H71.2248V19.0131Z" fill="#A9AAA9"/>
<path d="M75.9763 23.7647H80.7246V19.0164H75.9763V23.7647Z" fill="#A9AAA9"/>
<path d="M61.8076 14.2715V19.0198H66.5559V14.2715H61.8076Z" fill="#A9AAA9"/>
<path d="M66.5623 4.75824H61.814V9.50655H66.5623V4.75824Z" fill="#A9AAA9"/>
</svg>
