<svg width="123" height="27" viewBox="0 0 123 27" fill="none" xmlns="http://www.w3.org/2000/svg">
<path d="M26.5484 9.72126V16.3287H23.2119V19.4169H19.919V22.7591H16.5902V26.0474H13.2742V19.2449C16.711 19.2397 19.4949 16.4571 19.4949 13.025C19.4949 9.59291 16.711 6.81028 13.2742 6.80514V0H16.5902V3.29091H19.919V6.63315H23.2119V9.72126H26.5484Z" fill="#001D09"/>
<path d="M19.5356 13.025C19.5356 16.4571 16.7488 19.2397 13.3085 19.2449V26.0474H9.9685V22.7591H6.6388V19.4169H3.33999V16.3287H0V9.72126H3.33999V6.63315H6.6388V3.29091H9.9685V0H13.3085V6.80514C16.7488 6.81028 19.5356 9.59291 19.5356 13.025Z" fill="#C0E619"/>
<path d="M32.5484 12.6061C32.5484 5.88101 37.5968 0.66922 44.1544 0.66922C46.019 0.66922 47.7243 0.797882 48.1736 0.989853L49.1069 9.16288C48.7862 9.03422 47.5629 8.55226 45.923 8.55226C43.1905 8.55226 41.3892 10.2902 41.3892 12.8961C41.3892 15.696 43.2211 17.5606 45.9536 17.5606C48.3962 17.5606 49.7481 16.7886 50.3261 16.4353V24.639C49.4908 25.0903 46.8543 25.4436 44.3791 25.4436C37.7234 25.4436 32.5484 19.8132 32.5484 12.6061Z" fill="#001D09"/>
<path d="M51.9351 0.989807H68.9428V8.7115H60.004L66.6596 12.894L59.9713 17.3992H68.9408V25.1209H51.933V0.989807H51.9351Z" fill="#001D09"/>
<path d="M70.8713 0.989807H79.5528V25.1209H70.8713V0.989807Z" fill="#001D09"/>
<path d="M82.124 0.989807H92.6701C96.6893 0.989807 100.098 4.07767 100.098 7.29624C100.098 9.57946 98.8111 11.5747 97.2366 12.702C99.3258 13.764 101.094 15.4693 101.094 18.3325C101.094 21.6144 97.9105 25.1209 92.4782 25.1209H82.1261V0.989807H82.124ZM92.9908 9.0015C92.9908 8.00489 92.3475 7.26356 91.5122 7.26356H90.8056V10.7394H91.5122C92.3475 10.7394 92.9908 10.0002 92.9908 9.0015ZM92.9908 17.1092C92.9908 16.1126 92.3475 15.3712 91.5122 15.3712H90.8056V18.8471H91.5122C92.3475 18.8471 92.9908 18.1078 92.9908 17.1092Z" fill="#001D09"/>
<path d="M110.803 0.603851L122.088 25.1209H112.99L110.836 20.0051L108.681 25.1209H99.5829L110.803 0.603851Z" fill="#001D09"/>
</svg>
